<svg width="1920" height="240" viewBox="0 0 1920 240" fill="none" xmlns="http://www.w3.org/2000/svg">
	<path opacity="0.78" d="M-76.633 -92.4391C-48.9476 3.53588 20.2659 89.5536 113.576 143.644C206.886 197.734 323.194 219.447 433.057 203.195C548.119 186.171 650.438 130.475 754.002 82.6799C857.566 34.8851 972.116 -6.93528 1087.69 7.13334C1180.27 18.4396 1262.37 64.3714 1350.7 91.6093C1497.77 137.027 1664.76 128.676 1805.17 68.8682C1945.57 9.06053 2057.56 -101.561 2110 -232.033V527.801H-103L-76.633 -92.4391Z" fill="#332377"/>
	<path opacity="0.5" d="M2380.05 -144.398C2365.98 -33.2887 2241.1 44.7066 2116.95 61.5531C1992.81 78.4639 1867.42 49.722 1743.86 29.7248C1620.3 9.72765 1486.77 -0.431692 1374.5 49.6576C1276.88 93.1884 1200.01 180.186 1091.4 190.152C934.126 204.555 816.576 51.0722 659.892 31.7181C566.453 20.2085 474.773 58.531 393.646 101.355C312.519 144.242 232.198 193.753 139.272 208.285C46.3463 222.816 -64.6811 189.638 -97 110.742V623.402H2443L2380.05 -144.398Z" fill="#332377"/>
</svg>
