<svg viewBox="0 0 20 20" fill="none" xmlns="http://www.w3.org/2000/svg">
	<path d="M8.12109 0.0898438C7.90234 0.234375 7.85938 0.375 7.82812 1.03516L7.80078 1.62109L7.23828 1.80469C6.92578 1.90625 6.4375 2.10547 6.15234 2.25L5.62891 2.50781L5.19531 2.11328C4.73047 1.69141 4.57422 1.60938 4.30859 1.65625C4.17969 1.67969 4.01172 1.83203 2.92188 2.92188C1.83203 4.01172 1.67969 4.17969 1.65625 4.30859C1.60938 4.57422 1.69141 4.73047 2.11328 5.19531L2.50781 5.62891L2.25 6.14453C2.10938 6.42578 1.91016 6.91797 1.80859 7.23047L1.62109 7.80078L1.03516 7.82812C0.375 7.85938 0.234375 7.90234 0.0898438 8.12109L0 8.25391V10V11.7461L0.0898438 11.8789C0.234375 12.0977 0.375 12.1406 1.03516 12.1719L1.62109 12.1992L1.80469 12.7617C1.90625 13.0742 2.10547 13.5625 2.25 13.8477L2.50781 14.3711L2.11328 14.8047C1.69141 15.2695 1.60938 15.4258 1.65625 15.6914C1.67969 15.8203 1.83203 15.9883 2.92188 17.0781C4.01172 18.168 4.17969 18.3203 4.30859 18.3438C4.57422 18.3906 4.73047 18.3086 5.19531 17.8867L5.62891 17.4922L6.16016 17.7539C6.44922 17.8984 6.9375 18.0977 7.24609 18.1992L7.80078 18.3789L7.82812 18.9648C7.85938 19.625 7.90234 19.7656 8.12109 19.9102L8.25391 20H10H11.7461L11.8789 19.9102C12.0977 19.7656 12.1406 19.625 12.1719 18.9648L12.1992 18.3789L12.7695 18.1914C13.082 18.0898 13.5742 17.8906 13.8555 17.75L14.3711 17.4922L14.8047 17.8867C15.2695 18.3086 15.4258 18.3906 15.6914 18.3438C15.8203 18.3203 15.9883 18.168 17.0781 17.0781C18.168 15.9883 18.3203 15.8203 18.3438 15.6914C18.3906 15.4258 18.3086 15.2695 17.8867 14.8047L17.4922 14.3711L17.75 13.8555C17.8906 13.5742 18.0898 13.082 18.1914 12.7695L18.3789 12.1992L18.9648 12.1719C19.625 12.1406 19.7656 12.0977 19.9102 11.8789L20 11.7461V10V8.25391L19.9102 8.12109C19.7656 7.90234 19.625 7.85938 18.9648 7.82812L18.3789 7.80078L18.1914 7.23047C18.0898 6.91797 17.8906 6.42578 17.75 6.14453L17.4922 5.62891L17.8867 5.19531C18.3086 4.73047 18.3906 4.57422 18.3438 4.30859C18.3203 4.17969 18.168 4.01172 17.0781 2.92188C15.9883 1.83203 15.8203 1.67969 15.6914 1.65625C15.4258 1.60938 15.2695 1.69141 14.8047 2.11328L14.3711 2.50781L13.8555 2.25C13.5742 2.10938 13.082 1.91016 12.7695 1.80859L12.1992 1.62109L12.1719 1.03516C12.1406 0.375 12.0977 0.234375 11.8789 0.0898438L11.7461 0H10H8.25391L8.12109 0.0898438ZM10.9922 1.72266C11.0312 2.53125 11.0859 2.60156 11.7617 2.77344C12.5312 2.96484 13.1758 3.23438 13.8672 3.64453C14.1836 3.83594 14.2617 3.86719 14.4336 3.86719C14.6719 3.86719 14.7656 3.8125 15.1875 3.42188C15.3633 3.25781 15.5195 3.125 15.5352 3.125C15.5742 3.125 16.875 4.42578 16.875 4.46094C16.875 4.47656 16.7422 4.63672 16.5781 4.8125C16.1875 5.23438 16.1328 5.32812 16.1328 5.56641C16.1328 5.73828 16.1641 5.81641 16.3555 6.13281C16.7617 6.81641 17.0039 7.39844 17.207 8.17969C17.4023 8.92188 17.457 8.96484 18.2734 9.00781L18.8281 9.03516V10V10.9648L18.2734 10.9922C17.457 11.0352 17.4023 11.0781 17.207 11.8203C17.0039 12.6016 16.7617 13.1836 16.3555 13.8672C16.1641 14.1836 16.1328 14.2617 16.1328 14.4336C16.1328 14.6719 16.1875 14.7656 16.5781 15.1875C16.7422 15.3633 16.875 15.5195 16.875 15.5352C16.875 15.5742 15.5742 16.875 15.5391 16.875C15.5234 16.875 15.3633 16.7422 15.1875 16.5781C14.7656 16.1875 14.6719 16.1328 14.4336 16.1328C14.2617 16.1328 14.1836 16.1641 13.8672 16.3555C13.1836 16.7617 12.6016 17.0039 11.8203 17.207C11.0781 17.4023 11.0312 17.4609 10.9922 18.2773L10.9648 18.8281H10H9.03516L9.00781 18.2773C8.96875 17.4609 8.92188 17.4023 8.17969 17.207C7.39844 17.0039 6.80859 16.7539 6.09375 16.332C5.8125 16.1641 5.73047 16.1328 5.56641 16.1328C5.32812 16.1328 5.23438 16.1875 4.8125 16.5781C4.63672 16.7422 4.48047 16.875 4.46484 16.875C4.42578 16.875 3.125 15.5742 3.125 15.5391C3.125 15.5234 3.25781 15.3633 3.42188 15.1875C3.8125 14.7656 3.86719 14.6719 3.86719 14.4336C3.86719 14.2695 3.83594 14.1875 3.66797 13.9062C3.24609 13.1914 2.99609 12.6016 2.79297 11.8203C2.59766 11.0781 2.54297 11.0352 1.72656 10.9922L1.17188 10.9648V10V9.03516L1.72656 9.00781C2.54297 8.96484 2.59766 8.92188 2.79297 8.17969C2.99609 7.39844 3.23828 6.81641 3.64453 6.13281C3.83594 5.81641 3.86719 5.73828 3.86719 5.56641C3.86719 5.32812 3.8125 5.23438 3.42188 4.8125C3.25781 4.63672 3.125 4.48047 3.125 4.46484C3.125 4.42578 4.42578 3.125 4.46094 3.125C4.47656 3.125 4.63672 3.25781 4.8125 3.42188C5.23438 3.8125 5.32812 3.86719 5.56641 3.86719C5.73828 3.86719 5.81641 3.83594 6.13281 3.64453C6.81641 3.23828 7.39844 2.99609 8.17969 2.79297C8.92188 2.59766 8.96875 2.53906 9.00781 1.72266L9.03516 1.17188H10H10.9648L10.9922 1.72266Z" fill="currentColor"/>
	<path d="M9.31641 3.71484C8.05469 3.84766 6.75781 4.42188 5.82031 5.26172C5.16016 5.85547 4.69922 6.46094 4.33594 7.20703C4.07812 7.73828 3.93359 8.14063 3.82812 8.62891C3.49609 10.1602 3.72656 11.7227 4.48437 13.0859C5.34375 14.6328 6.89453 15.7852 8.63672 16.1719C9.71484 16.4141 10.9648 16.3477 12.0156 15.9961C12.4961 15.8359 13.3008 15.418 13.7109 15.1172C14.957 14.1992 15.8398 12.8516 16.1719 11.3711C16.4141 10.2813 16.3477 9.03516 15.9922 7.96875C15.8516 7.55078 15.4687 6.79297 15.2187 6.42578C14.6016 5.53516 13.7539 4.80469 12.793 4.33203C11.6914 3.79297 10.5391 3.58594 9.31641 3.71484ZM11.0391 5.00391C13.0469 5.4375 14.5742 6.97656 15.0078 8.99609C15.125 9.55859 15.125 10.4414 15.0078 11.0039C14.6484 12.6719 13.5586 14.0078 11.9844 14.7031L11.7578 14.8047V12.8906V10.9766H12.5742C13.3555 10.9766 13.3906 10.9727 13.5195 10.8867C13.7578 10.7305 13.8516 10.4063 13.7383 10.1484C13.7109 10.0898 12.9453 9.16016 12.0352 8.08203C10.3281 6.0625 10.2812 6.01563 10 6.01563C9.71875 6.01563 9.67188 6.0625 7.96484 8.08203C7.05469 9.16016 6.28906 10.0898 6.26172 10.1484C6.14844 10.4063 6.24219 10.7305 6.48047 10.8867C6.60938 10.9727 6.64453 10.9766 7.42578 10.9766H8.24219V12.8906V14.8047L8.01953 14.7031C6.90625 14.2148 6.01562 13.3906 5.47656 12.3477C5.0625 11.5547 4.91016 10.9102 4.91016 10C4.91016 9.33594 4.98437 8.85547 5.17969 8.3125C5.83594 6.48828 7.47656 5.16797 9.39453 4.92188C9.8125 4.86719 10.5938 4.90625 11.0391 5.00391ZM10.9453 8.68359L11.8711 9.78516L11.3945 9.80469C10.8789 9.82422 10.7969 9.85547 10.6602 10.0664C10.5898 10.168 10.5859 10.3086 10.5859 12.6211V15.0664L10.4062 15.0938C10.1719 15.125 9.82812 15.125 9.59375 15.0938L9.41406 15.0664V12.6211C9.41406 10.3086 9.41016 10.168 9.33984 10.0664C9.20312 9.85547 9.12109 9.82422 8.60547 9.80469L8.12891 9.78516L9.05469 8.68359C9.5625 8.07813 9.98828 7.58203 10 7.58203C10.0117 7.58203 10.4375 8.07813 10.9453 8.68359Z" fill="currentColor"/>
 
</svg>
