<svg viewBox="0 0 20 20" fill="none">
    <path d="M8.5 0.0585938C6.87109 0.367188 5.51953 1.49609 4.94141 3.03125C4.70703 3.65234 4.67969 3.89844 4.66016 5.6875L4.64062 7.33594L3.87109 7.35156C3.17188 7.36719 3.07812 7.37891 2.79297 7.47266C2.26953 7.64844 1.9375 7.85938 1.52344 8.27734C1.21094 8.59375 1.12109 8.71094 0.964844 9.02344C0.863281 9.22656 0.742188 9.53516 0.691406 9.70703C0.605469 10.0195 0.605469 10.0195 0.605469 13.6719C0.605469 17.3242 0.605469 17.3242 0.691406 17.6367C0.742188 17.8086 0.863281 18.1172 0.964844 18.3203C1.12109 18.6328 1.21094 18.75 1.52344 19.0664C1.93359 19.4844 2.26172 19.6914 2.79297 19.875L3.10547 19.9805H8.44141H13.7734L13.9141 19.8867C14.1602 19.7148 14.2383 19.5586 14.2383 19.2188C14.2383 18.8789 14.1602 18.7227 13.9141 18.5508L13.7734 18.457L8.63672 18.4375C3.96094 18.418 3.48047 18.4102 3.30469 18.3516C2.86328 18.1992 2.47266 17.8281 2.29688 17.3945L2.20703 17.168V13.6719V10.1758L2.29688 9.94922C2.48438 9.49219 2.92188 9.09375 3.37109 8.97656C3.53516 8.93359 4.62109 8.92578 9.29688 8.92578C12.4453 8.92578 15.2031 8.94141 15.4297 8.96094C15.8086 8.99219 15.8555 8.98828 16.0039 8.91406C16.457 8.67969 16.5859 8.08203 16.2617 7.69531C16.0352 7.42188 15.7148 7.34766 14.7773 7.34375H14.0664L14.0508 5.59375C14.0352 3.66406 14.0352 3.64453 13.75 2.90625C13.2344 1.55859 11.9883 0.492188 10.4883 0.109375C10.0664 0.00390625 8.94922 -0.0234375 8.5 0.0585938ZM10.1016 1.67969C11.0117 1.89453 11.7461 2.47656 12.1484 3.29688C12.4492 3.89844 12.4609 3.99219 12.4609 5.78906V7.34375H9.35547H6.25V6.00391C6.25 4.57422 6.28125 4.10938 6.41016 3.71484C6.74219 2.67969 7.67188 1.85547 8.75391 1.64453C9.08203 1.57812 9.76172 1.59766 10.1016 1.67969Z" fill="currentColor"/>
    <path d="M15.918 10.2578C15.5977 10.3359 15.1016 10.5859 14.8437 10.7969C14.1836 11.3438 13.8047 12.1484 13.8359 12.9336C13.8477 13.2188 13.8633 13.293 13.9531 13.4258C14.1602 13.7383 14.6172 13.8477 14.9805 13.6719C15.2344 13.5469 15.3437 13.3672 15.4102 12.9492C15.4805 12.5195 15.582 12.3125 15.8242 12.0938C16.1445 11.8047 16.5937 11.7188 17.0156 11.8633C17.2852 11.9531 17.6211 12.2969 17.7109 12.5703C17.9258 13.2109 17.6641 13.7539 16.9727 14.1133C16.5664 14.3242 16.2305 14.6562 16.043 15.0312C15.8477 15.4219 15.8125 15.6406 15.8281 16.3594C15.8398 16.9375 15.8477 16.9883 15.9336 17.1172C16.1055 17.3633 16.2617 17.4414 16.6016 17.4414C16.8594 17.4414 16.9219 17.4258 17.0586 17.3359C17.3203 17.1641 17.3945 16.957 17.418 16.3242C17.4453 15.6992 17.457 15.6758 17.8906 15.4453C18.6094 15.0664 19.1367 14.3906 19.3164 13.6172C19.3984 13.2695 19.3984 12.668 19.3203 12.3281C19.0859 11.3242 18.2578 10.4883 17.2656 10.2578C16.9453 10.1797 16.2344 10.1836 15.918 10.2578Z" fill="currentColor"/>
    <path d="M4.60938 12.8242C4.49609 12.8828 4.39453 12.9805 4.32422 13.0977C4.08594 13.4805 4.21875 14 4.60938 14.207C4.84375 14.3359 5.23438 14.3242 5.4375 14.1836C5.68359 14.0117 5.76172 13.8555 5.76172 13.5156C5.76172 13.1758 5.68359 13.0195 5.4375 12.8477C5.23438 12.707 4.84375 12.6953 4.60938 12.8242Z" fill="currentColor"/>
    <path d="M7.53906 12.8242C7 13.1094 7 13.9219 7.53906 14.207C7.77344 14.3359 8.16406 14.3242 8.36719 14.1836C8.61328 14.0117 8.69141 13.8555 8.69141 13.5156C8.69141 13.1758 8.61328 13.0195 8.36719 12.8477C8.16406 12.707 7.77344 12.6953 7.53906 12.8242Z" fill="currentColor"/>
    <path d="M10.4688 12.8242C10.3555 12.8828 10.2539 12.9805 10.1836 13.0977C9.94531 13.4805 10.0781 14 10.4688 14.207C10.7031 14.3359 11.0938 14.3242 11.2969 14.1836C11.543 14.0117 11.6211 13.8555 11.6211 13.5156C11.6211 13.1758 11.543 13.0195 11.2969 12.8477C11.0938 12.707 10.7031 12.6953 10.4688 12.8242Z" fill="currentColor"/>
    <path d="M16.2109 18.5273C16.0977 18.5859 15.9961 18.6836 15.9258 18.8008C15.6875 19.1836 15.8203 19.7031 16.2109 19.9102C16.4453 20.0391 16.8359 20.0273 17.0391 19.8867C17.2852 19.7148 17.3633 19.5586 17.3633 19.2188C17.3633 18.8789 17.2852 18.7227 17.0391 18.5508C16.8359 18.4102 16.4453 18.3984 16.2109 18.5273Z" fill="currentColor"/>
</svg>