<svg viewBox="0 0 20 20" fill="none" xmlns="http://www.w3.org/2000/svg">
	<path d="M12.0703 0.0585938C10.4336 0.367188 9.06641 1.53906 8.5 3.11719C8.13672 4.13281 8.15234 5.41406 8.53516 6.41406C9.13281 7.96094 10.4844 9.07422 12.1055 9.35547C12.5312 9.42969 13.3359 9.42969 13.7734 9.35547C15.4453 9.0625 16.8516 7.84375 17.3984 6.20703C17.707 5.28125 17.6914 4.04688 17.3594 3.11719C17.0312 2.21094 16.3789 1.35156 15.6133 0.828125C15.1953 0.539062 14.5742 0.25 14.1133 0.128906C13.7891 0.0429688 13.6289 0.0273438 13.0469 0.015625C12.5664 0.0078125 12.2773 0.0195312 12.0703 0.0585938ZM13.625 1.27344C14.2383 1.39062 14.8516 1.71875 15.3242 2.17969C15.7891 2.63281 16.0664 3.08203 16.2695 3.71094C16.4102 4.14453 16.4492 4.93359 16.3555 5.39844C16.0703 6.77734 14.9961 7.85547 13.6211 8.14844C13.2578 8.22266 12.5977 8.22266 12.2344 8.14844C10.8594 7.85547 9.79297 6.77734 9.50781 5.40234C9.41016 4.93359 9.44922 4.14844 9.58984 3.71094C9.79297 3.08203 10.0703 2.63281 10.5352 2.17969C11.3672 1.37109 12.4687 1.04688 13.625 1.27344Z" fill="currentColor"/>
	<path d="M11.4297 2.45703C11.25 2.57812 11.1719 2.72656 11.1719 2.96875C11.1719 3.21094 11.25 3.35938 11.4297 3.48047C11.582 3.58203 11.9336 3.58203 12.0859 3.48047C12.2656 3.35938 12.3438 3.21094 12.3438 2.96875C12.3438 2.82422 12.3203 2.71875 12.2695 2.64062C12.1484 2.46094 12 2.38281 11.7578 2.38281C11.6133 2.38281 11.5078 2.40625 11.4297 2.45703Z" fill="currentColor"/>
	<path d="M13.7773 2.45703C13.7109 2.5 13.1562 3.28906 12.418 4.39844L11.1719 6.26953V6.48438C11.1719 6.72656 11.25 6.875 11.4297 6.99609C11.582 7.09766 11.9336 7.09766 12.082 6.99609C12.1484 6.95312 12.7031 6.16406 13.4414 5.05469L14.6875 3.18359V2.96875C14.6875 2.72656 14.6094 2.57812 14.4297 2.45703C14.2773 2.35547 13.9258 2.35547 13.7773 2.45703Z" fill="currentColor"/>
	<path d="M13.7734 5.97266C13.5 6.15625 13.418 6.53516 13.5898 6.8125C13.7031 6.99609 13.8672 7.07812 14.1094 7.07812C14.4727 7.07422 14.6875 6.83984 14.6875 6.44922C14.6875 6.26953 14.6719 6.23047 14.5352 6.08594C14.3945 5.93359 14.3711 5.92188 14.1367 5.91016C13.9375 5.89844 13.8633 5.91016 13.7734 5.97266Z" fill="currentColor"/>
	<path d="M7.57812 9.51172C7.14453 9.625 6.72266 9.82031 6.39062 10.0547C6.25781 10.1484 5.40625 10.9297 4.49609 11.7891L2.83594 13.3516L2.71875 13.2344C2.58594 13.0977 2.39453 13.0078 2.24609 13.0078C2.01562 13.0078 1.84766 13.1367 1.03906 13.9375C0.0351562 14.9375 0 14.9805 0 15.2695C0 15.4102 0.0234375 15.5273 0.0625 15.5859C0.15625 15.7266 4.17188 19.75 4.35156 19.8867C4.47656 19.9805 4.54297 20 4.72656 20C5.01953 20 5.0625 19.9688 6.08203 18.9414C6.75391 18.2578 6.91406 18.0742 6.95312 17.9414C7.02344 17.707 6.97656 17.5234 6.78906 17.3203L6.625 17.1445L6.97656 16.793L7.32422 16.4453H11.25C14.918 16.4453 15.1836 16.4414 15.2773 16.375C15.5 16.2266 19.9297 12.0977 19.9648 12.0078C20.0195 11.8594 20.0078 11.5742 19.9414 11.4453C19.8555 11.2773 19.4102 10.9258 19.0859 10.7656C18.668 10.5586 18.2695 10.4688 17.7773 10.4688C16.9453 10.4727 16.4141 10.6836 15.668 11.3047L15.2188 11.6758L15.125 11.5117C14.8906 11.0938 14.5547 10.8125 14.125 10.6641C13.9102 10.5898 13.7969 10.5859 12.5273 10.5859H11.1641L10.9219 10.3633C10.6445 10.1055 10.25 9.83984 9.92969 9.69922C9.25391 9.39844 8.3125 9.32422 7.57812 9.51172ZM9.22656 10.7383C9.58594 10.8594 9.91797 11.082 10.2578 11.4375L10.543 11.7383L12.1172 11.7578C13.668 11.7773 13.6953 11.7773 13.832 11.8672C14.1875 12.0859 14.1875 12.6016 13.832 12.8203C13.6914 12.9102 13.6836 12.9102 11.7188 12.9297C9.94531 12.9453 9.73828 12.957 9.65234 13.0156C9.48828 13.1328 9.41406 13.2852 9.41406 13.5156C9.41406 13.7578 9.49219 13.9062 9.67188 14.0273C9.78125 14.0977 9.89453 14.1016 11.8398 14.1016C13.8047 14.1016 13.9023 14.0977 14.125 14.0234C14.4414 13.9141 14.4922 13.875 15.6875 12.8828C16.9336 11.8477 16.9062 11.8672 17.2266 11.7578C17.4375 11.6875 17.543 11.6758 17.832 11.6875C18.0273 11.6992 18.2422 11.7305 18.3086 11.7617L18.4375 11.8164L16.5703 13.543L14.707 15.2695H10.7617C7.17188 15.2734 6.80469 15.2773 6.71875 15.3359C6.66406 15.3711 6.42578 15.5938 6.19141 15.8242L5.76172 16.25L4.72656 15.2383L3.69141 14.2227L3.85547 14.0742C3.94531 13.9922 4.69141 13.293 5.50781 12.5195C6.42969 11.6445 7.08203 11.0586 7.23047 10.9688C7.83203 10.6055 8.56641 10.5195 9.22656 10.7383ZM5.11719 18.1445L4.72656 18.5352L3.09766 16.9062L1.46484 15.2734L1.85547 14.8828L2.24609 14.4922L3.875 16.1211L5.50781 17.7539L5.11719 18.1445Z" fill="currentColor"/>
</svg>
