<svg class="w-6 h-6 mr-3" viewBox="0 0 20 20" fill="none">
    <path d="M11.4258 0.0742188C11.2344 0.164062 11.0391 0.363281 10.9609 0.554688C10.832 0.855469 10.918 1.3125 11.1445 1.55859C11.1914 1.60938 11.3203 1.69141 11.4258 1.74219L11.6211 1.83594H14.2383H16.8555L12.1211 6.57031C8.76172 9.93359 7.36719 11.3516 7.32422 11.4531C7.25 11.6406 7.25 11.9922 7.32812 12.1797C7.40625 12.3711 7.60156 12.5703 7.79297 12.6602C7.98437 12.75 8.34765 12.7578 8.54687 12.6758C8.64844 12.6328 10.0664 11.2383 13.4297 7.87891L18.1641 3.14453V5.76172V8.37891L18.2578 8.57422C18.3086 8.67969 18.3906 8.80859 18.4414 8.85547C18.6992 9.08984 19.1641 9.16797 19.4727 9.02734C19.6719 8.9375 19.9062 8.67969 19.9609 8.48828C19.9922 8.38281 20 7.21484 19.9922 4.46875L19.9805 0.597656L19.8633 0.410156C19.7773 0.269531 19.6875 0.1875 19.5352 0.109375L19.3281 0H15.4531C11.7656 0 11.5742 0.00390625 11.4258 0.0742188Z" fill="currentColor"/>
    <path d="M0.527343 3.70703C0.316405 3.80078 0.136718 3.98828 0.062499 4.1875C0.00390528 4.33984 -9.70205e-07 5.04297 0.00781153 11.8789L0.0195303 19.4023L0.136718 19.5898C0.222655 19.7305 0.312499 19.8125 0.464843 19.8906L0.671874 20H8.17969H15.6875L15.8906 19.8984C16.1094 19.7891 16.3086 19.5352 16.3477 19.3203C16.3594 19.2539 16.3633 17.0547 16.3594 14.4336L16.3477 9.66797L16.2383 9.50391C15.8281 8.87109 14.8828 8.96484 14.5898 9.66406C14.5391 9.78125 14.5312 10.3867 14.5312 13.9844V18.1641H8.18359H1.83594V11.8164V5.46875H6.01562C9.61328 5.46875 10.2187 5.46094 10.3359 5.41016C11.0352 5.11719 11.1289 4.17188 10.4961 3.76172L10.332 3.65234L5.50781 3.64453C0.898437 3.63281 0.67578 3.63672 0.527343 3.70703Z" fill="currentColor"/>
</svg>