<svg viewBox="0 0 20 20" fill="none" xmlns="http://www.w3.org/2000/svg">
	<path d="M4.16797 0.0429668C4.05078 0.109373 3.98438 0.328123 3.98438 0.621092V0.894529L2.45312 0.910154C1.31641 0.921873 0.878906 0.937498 0.773438 0.976561C0.511719 1.07031 0.265625 1.29297 0.128906 1.55859L0 1.80469V10.4648V19.1289L0.121094 19.3672C0.253906 19.6367 0.398438 19.7734 0.683594 19.9062L0.878906 20H2.73438C4.79297 20 4.71875 20.0078 4.80469 19.7461C4.85547 19.5898 4.80859 19.3789 4.69922 19.2891C4.64844 19.25 4.25781 19.2344 2.85547 19.2187C0.855469 19.1953 0.902344 19.2031 0.824219 18.918C0.761719 18.6914 0.769531 2.17578 0.832031 1.99219C0.921875 1.72656 0.96875 1.71875 2.5625 1.71875H3.97266L3.99219 2.04687C4.01953 2.44531 4.11719 2.65625 4.36719 2.83203L4.53906 2.94922H7.34375H10.1484L10.3203 2.83203C10.5703 2.65625 10.668 2.44531 10.6953 2.04687L10.7148 1.71875H12.0859C12.918 1.71875 13.5156 1.73437 13.6055 1.76172C13.8867 1.83984 13.8867 1.83203 13.8984 3.41797L13.9102 4.82812L12.9805 5.11719L12.0508 5.41015L9.60156 5.42969L7.15625 5.44922L7.05469 5.54297C6.86719 5.71875 6.88672 6.05469 7.09375 6.1914C7.17188 6.24219 7.41016 6.25 8.82812 6.25H10.4688V7.96875V9.68359L8.8125 9.69531L7.15625 9.70703L7.05469 9.80078C6.93359 9.91797 6.88672 10.1172 6.95312 10.2734C7.05078 10.5078 7.02734 10.5078 8.83203 10.5156L10.4844 10.5273L10.5352 10.8398C10.832 12.625 12.0352 14.2578 13.6445 15.043L13.9062 15.1719V15.9648V16.7578H13.1172C12.3672 16.7578 12.3125 16.7656 12.1289 16.8516C11.8438 16.9844 11.6992 17.1211 11.5664 17.3906L11.4453 17.6289V18.4258V19.2187H9.60547H7.76562L7.65234 19.332C7.49219 19.4922 7.49219 19.7266 7.65234 19.8867L7.76562 20H9.90625H12.0469L13.3672 18.6797L14.6875 17.3594V16.4102V15.4609L14.7969 15.4844C15.1055 15.5586 15.3789 15.5547 15.6953 15.4727C17.6328 14.9727 19.2383 13.4102 19.7852 11.4922C19.9922 10.7656 20 10.6289 20 8.24219V6.02734L19.9062 5.93359C19.8359 5.85937 19.2969 5.67969 17.5938 5.14453C16.3711 4.76562 15.3086 4.45312 15.2305 4.45312C15.1523 4.45312 15.0117 4.48047 14.9219 4.51172C14.832 4.54297 14.7422 4.57031 14.7227 4.57031C14.7031 4.57031 14.6875 3.94922 14.6875 3.1875V1.80469L14.5586 1.55859C14.4219 1.29297 14.1758 1.07031 13.9141 0.976561C13.8086 0.937498 13.3711 0.921873 12.2383 0.910154L10.7031 0.894529V0.621092C10.7031 0.320311 10.6328 0.105467 10.5156 0.0429668C10.4023 -0.0156269 4.26953 -0.0156269 4.16797 0.0429668ZM9.88281 1.46094C9.88281 2.04297 9.875 2.14453 9.82031 2.16406C9.74219 2.19531 4.94531 2.19531 4.86719 2.16406C4.8125 2.14453 4.80469 2.04297 4.80469 1.46094V0.781248H7.34375H9.88281V1.46094ZM17.2852 5.91797L19.1992 6.51562L19.1953 8.42187C19.1953 10.5195 19.1797 10.6875 18.9492 11.3945C18.4414 12.9531 17.1133 14.2266 15.5547 14.6523C15.207 14.75 15.0586 14.7305 14.4727 14.5078C13.0938 13.9805 11.9805 12.8086 11.5195 11.3945C11.2891 10.6875 11.2734 10.5195 11.2734 8.42187L11.2695 6.51562L13.2422 5.89844C14.3281 5.55859 15.25 5.28906 15.293 5.30078C15.3359 5.30859 16.2344 5.58594 17.2852 5.91797ZM12.7734 18.0664C12.3867 18.4531 12.2422 18.5781 12.2305 18.5273C12.2227 18.4922 12.2266 18.3164 12.2344 18.1406C12.2617 17.625 12.3555 17.5508 12.9688 17.543L13.3008 17.5391L12.7734 18.0664Z" fill="currentColor"/>
	<path d="M15.1367 6.08594C15.0938 6.09375 14.418 6.30078 13.6328 6.54687C12.4688 6.91015 12.1914 7.01172 12.1211 7.08984L12.0312 7.1914V8.76562C12.0312 10.0117 12.043 10.4102 12.0898 10.6523C12.3672 12.1094 13.3945 13.3281 14.7617 13.8281C15.1602 13.9727 15.3086 13.9727 15.707 13.8281C17.0664 13.332 18.1016 12.1055 18.375 10.6641C18.4258 10.4062 18.4375 10.0312 18.4375 8.76562V7.1914L18.3516 7.08984C18.2773 7.00781 18.0039 6.91015 16.8359 6.54687C15.2891 6.0664 15.2539 6.05859 15.1367 6.08594ZM16.4531 7.29297L17.668 7.67187L17.6445 8.98437C17.6211 10.375 17.6016 10.5508 17.4062 11.0664C17.1758 11.6836 16.6797 12.3086 16.1211 12.6914C15.8594 12.8711 15.3633 13.0977 15.2344 13.0977C15.1758 13.0977 14.9922 13.0352 14.8281 12.957C14.0156 12.5703 13.3984 11.918 13.0703 11.0859C12.8711 10.5781 12.8477 10.3867 12.8242 8.98437L12.8008 7.67187L13.9883 7.29687C14.6406 7.08984 15.1875 6.92187 15.207 6.91797C15.2227 6.91406 15.7812 7.08594 16.4531 7.29297Z" fill="currentColor"/>
	<path d="M16.3281 8.8125C16.2969 8.82812 15.957 9.14453 15.5781 9.52344L14.8867 10.2109L14.5195 9.85156C14.1719 9.51172 14.1406 9.49219 13.9883 9.49219C13.7461 9.49219 13.5938 9.65234 13.5938 9.90625V10.0937L14.1406 10.6406L14.6836 11.1914H14.8828H15.0781L15.9766 10.293L16.875 9.39062V9.21094C16.875 8.96875 16.7617 8.82812 16.543 8.80859C16.457 8.79687 16.3594 8.80078 16.3281 8.8125Z" fill="currentColor"/>
	<path d="M4.42578 6.25781L3.71484 6.96875L3.46484 6.73047C3.20703 6.48047 3.05078 6.41406 2.88281 6.48047C2.70312 6.54687 2.61719 6.67578 2.61719 6.87109C2.61719 7.04297 2.625 7.05469 3.07812 7.50781C3.52734 7.95703 3.54297 7.96875 3.71094 7.96875H3.88672L4.8125 7.03906C5.73828 6.11719 5.74219 6.10937 5.74219 5.94141C5.74219 5.80859 5.71875 5.75 5.62891 5.66016C5.53516 5.56641 5.48047 5.54687 5.32812 5.54687H5.14062L4.42578 6.25781Z" fill="currentColor"/>
	<path d="M7.1875 7.17578C6.87109 7.29297 6.83594 7.78906 7.13281 7.92578C7.19531 7.95312 7.57031 7.96875 8.20703 7.96875C9.26953 7.96875 9.35547 7.95312 9.44531 7.75391C9.53125 7.57031 9.50391 7.42578 9.35937 7.28125L9.22656 7.14844L8.23828 7.15234C7.69141 7.15234 7.21875 7.16406 7.1875 7.17578Z" fill="currentColor"/>
	<path d="M4.42578 10.5156L3.71484 11.2266L3.46484 10.9883C3.20703 10.7383 3.05078 10.6719 2.88281 10.7383C2.70312 10.8047 2.61719 10.9336 2.61719 11.1289C2.61719 11.3008 2.625 11.3125 3.07812 11.7656C3.52734 12.2148 3.54297 12.2266 3.71094 12.2266H3.88672L4.8125 11.2969C5.73828 10.375 5.74219 10.3672 5.74219 10.1992C5.74219 10.0664 5.71875 10.0078 5.62891 9.91797C5.53516 9.82422 5.48047 9.80469 5.32812 9.80469H5.14062L4.42578 10.5156Z" fill="currentColor"/>
	<path d="M7.1875 11.4336C6.86328 11.5508 6.83594 12.0586 7.14453 12.1875C7.21875 12.2148 7.59375 12.2266 8.31641 12.2187L9.38281 12.207L9.47656 12.0977C9.64062 11.9062 9.58203 11.5703 9.37109 11.4609C9.28516 11.418 9.05469 11.4062 8.25391 11.4102C7.69922 11.4102 7.21875 11.4219 7.1875 11.4336Z" fill="currentColor"/>
	<path d="M7.1875 13.9883C6.95703 14.082 6.85938 14.3086 6.95312 14.5352C7.05469 14.7734 6.98438 14.7656 9.07422 14.7656C10.3086 14.7656 11.0078 14.75 11.0586 14.7266C11.0977 14.7031 11.1602 14.6328 11.1914 14.5703C11.2812 14.3945 11.2656 14.2383 11.1367 14.0937L11.0234 13.9648L9.15234 13.957C7.97656 13.9531 7.25 13.9648 7.1875 13.9883Z" fill="currentColor"/>
	<path d="M4.42578 14.7734L3.71094 15.4844L3.48438 15.2656C3.23438 15.0195 3.10156 14.9531 2.92969 14.9844C2.73828 15.0234 2.61719 15.1758 2.61719 15.3828C2.61719 15.5586 2.625 15.5703 3.07812 16.0234C3.52734 16.4727 3.54297 16.4844 3.71094 16.4844H3.88672L4.8125 15.5547C5.73828 14.6328 5.74219 14.625 5.74219 14.457C5.74219 14.2148 5.58203 14.0625 5.32812 14.0625H5.14453L4.42578 14.7734Z" fill="currentColor"/>
	<path d="M7.1875 15.6914C6.98047 15.7695 6.86719 16.0391 6.95313 16.2539C7.04688 16.4805 7.07813 16.4844 8.6875 16.4844H10.1484L10.2656 16.3867C10.4063 16.2695 10.4492 16.0938 10.375 15.918C10.2695 15.668 10.2422 15.6641 8.66406 15.668C7.88281 15.668 7.21875 15.6797 7.1875 15.6914Z" fill="currentColor"/>
	<path d="M5.89453 19.332C5.64063 19.5859 5.81641 20 6.17969 20C6.39063 20 6.50391 19.9258 6.5625 19.7461C6.59766 19.6445 6.59766 19.5742 6.5625 19.4727C6.50391 19.293 6.39063 19.2187 6.17969 19.2187C6.04297 19.2187 5.98828 19.2422 5.89453 19.332Z" fill="currentColor"/>
</svg>
