<svg viewBox="0 0 20 20" fill="none" xmlns="http://www.w3.org/2000/svg">
	<path d="M12.5625 2.21094C11.3438 2.73438 10.293 3.20312 10.2305 3.24609C9.9961 3.41016 10 3.39062 10 5.28516C10 7.125 10.0234 7.54688 10.1758 8.30469C10.6055 10.4453 11.8906 12.0273 14.4141 13.5273C14.7461 13.7266 14.8125 13.75 15.0039 13.75C15.1992 13.75 15.2539 13.7266 15.6875 13.4648C17.9805 12.0742 19.2227 10.625 19.7188 8.76953C19.9531 7.89062 19.9688 7.71094 19.9883 5.5625C20.0078 3.36328 20.0117 3.41797 19.7695 3.24609C19.707 3.20312 18.6523 2.73438 17.4219 2.20703C15.4375 1.35547 15.168 1.25 14.9883 1.25391C14.8125 1.25391 14.4805 1.38672 12.5625 2.21094ZM16.9219 3.40625L18.7617 4.19531L18.7383 5.60156C18.7148 7.11328 18.6641 7.67188 18.4961 8.32031C18.332 8.96094 18.0859 9.50781 17.7227 10.0391C17.4727 10.4023 16.6914 11.1953 16.2656 11.5156C15.7813 11.8789 15.0703 12.3438 15 12.3438C14.9648 12.3438 14.7383 12.2109 14.4922 12.0469C12.7109 10.8594 11.8828 9.8125 11.4883 8.26172C11.3359 7.66797 11.2852 7.07422 11.2617 5.60156L11.2383 4.19531L13.1094 3.38672C14.1367 2.94531 15.0039 2.58984 15.0313 2.60156C15.0625 2.60938 15.9141 2.97266 16.9219 3.40625Z" fill="currentColor"/>
	<path d="M16.5508 5.06247C16.4922 5.09372 15.9883 5.69138 15.4336 6.38669L14.4258 7.65622L14.0078 7.02731C13.5391 6.32419 13.457 6.24997 13.125 6.24997C12.7305 6.24997 12.5 6.48044 12.5 6.88278V7.10544L13.2031 8.16403C13.6875 8.8945 13.9453 9.24216 14.0352 9.29685C14.1797 9.38669 14.5078 9.40231 14.6719 9.3281C14.7695 9.28122 17.3398 6.12497 17.457 5.90622C17.4805 5.86325 17.5 5.73044 17.5 5.61716C17.5 5.23044 17.2617 4.99997 16.875 4.99997C16.7578 5.00388 16.6094 5.03122 16.5508 5.06247Z" fill="currentColor"/>
	<path d="M0.808554 5.05859C0.464804 5.18359 0.132773 5.53516 0.0429295 5.86719C0.00777324 5.99219 -3.92608e-05 7.53516 0.00777324 11.9531L0.019492 17.8711L0.109336 18.0547C0.226523 18.2891 0.460898 18.5234 0.695273 18.6406L0.878867 18.7305H9.99996H19.1211L19.3046 18.6406C19.539 18.5234 19.7734 18.2891 19.8906 18.0547L19.9804 17.8711L19.9921 15.3906C20 12.9688 20 12.9062 19.9218 12.7812C19.8046 12.5938 19.6289 12.5 19.375 12.5C19.1211 12.5 18.9453 12.5938 18.8281 12.7812C18.7539 12.9062 18.75 12.9844 18.75 15.2031V17.5H9.99996H1.24996V13.75V10H4.79684C8.26168 10 8.34371 9.99609 8.46871 9.92188C8.65621 9.80469 8.74996 9.62891 8.74996 9.375C8.74996 9.12109 8.65621 8.94531 8.46871 8.82812C8.34371 8.75391 8.26168 8.75 4.79684 8.75H1.24996V7.5V6.25H4.79684C8.26168 6.25 8.34371 6.24609 8.46871 6.17188C8.65621 6.05469 8.74996 5.87891 8.74996 5.625C8.74996 5.37109 8.65621 5.19531 8.46871 5.07812C8.34371 5 8.26559 5 4.6484 5.00391C1.57809 5.00391 0.933554 5.01562 0.808554 5.05859Z" fill="currentColor"/>
	<path d="M2.78125 12.5781C2.59375 12.6953 2.5 12.8711 2.5 13.125C2.5 13.3789 2.59375 13.5547 2.78125 13.6719C2.90234 13.7461 2.98047 13.75 4.375 13.75C5.76953 13.75 5.84766 13.7461 5.96875 13.6719C6.15625 13.5547 6.25 13.3789 6.25 13.125C6.25 12.8711 6.15625 12.6953 5.96875 12.5781C5.84766 12.5039 5.76953 12.5 4.375 12.5C2.98047 12.5 2.90234 12.5039 2.78125 12.5781Z" fill="currentColor"/>
</svg>
