<svg fill="none" xmlns="http://www.w3.org/2000/svg">
	<path d="M9.65625 0.078125C9.58594 0.121094 9.49609 0.210938 9.45312 0.28125C9.37891 0.402344 9.375 0.480469 9.375 1.45312C9.375 2.63672 9.41406 2.51562 9.00391 2.55859C8.875 2.57422 8.58594 2.625 8.35938 2.67578C5.51953 3.30859 3.30859 5.51953 2.67578 8.35938C2.625 8.58594 2.57422 8.875 2.55859 9.00391C2.51562 9.41406 2.63672 9.375 1.45312 9.375C0.480469 9.375 0.402344 9.37891 0.28125 9.45312C0.09375 9.57031 0 9.74609 0 10C0 10.2539 0.09375 10.4297 0.28125 10.5469C0.402344 10.6211 0.480469 10.625 1.45312 10.625C2.63672 10.625 2.51562 10.5859 2.55859 10.9961C2.57422 11.125 2.625 11.4141 2.67578 11.6406C3.30859 14.4805 5.51953 16.6914 8.35938 17.3242C8.58594 17.375 8.875 17.4258 9.00391 17.4414C9.41406 17.4844 9.375 17.3633 9.375 18.5469C9.375 19.5195 9.37891 19.5977 9.45312 19.7188C9.57031 19.9062 9.74609 20 10 20C10.2539 20 10.4297 19.9062 10.5469 19.7188C10.6211 19.5977 10.625 19.5195 10.625 18.5469C10.625 17.3633 10.5859 17.4844 10.9961 17.4414C11.125 17.4258 11.4141 17.375 11.6406 17.3242C14.4805 16.6914 16.6914 14.4805 17.3242 11.6406C17.375 11.4141 17.4258 11.125 17.4414 10.9961C17.4844 10.5859 17.3633 10.625 18.5469 10.625C19.5195 10.625 19.5977 10.6211 19.7188 10.5469C19.9062 10.4297 20 10.2539 20 10C20 9.74609 19.9062 9.57031 19.7188 9.45312C19.5977 9.37891 19.5195 9.375 18.5469 9.375C17.3633 9.375 17.4844 9.41406 17.4414 9.00391C17.4258 8.875 17.375 8.58594 17.3242 8.35938C16.6914 5.51953 14.4805 3.30859 11.6406 2.67578C11.4141 2.625 11.125 2.57422 10.9961 2.55859C10.5859 2.51562 10.625 2.63672 10.625 1.45312C10.625 0.480469 10.6211 0.402344 10.5469 0.28125C10.4297 0.09375 10.2539 0 10 0C9.85547 0 9.74219 0.0234375 9.65625 0.078125ZM11.0391 3.86719C14.0273 4.37891 16.2109 6.96875 16.2109 10C16.2109 13.4414 13.4414 16.2109 10 16.2109C8.19531 16.2109 6.5625 15.4766 5.33594 14.1094C3.88672 12.4883 3.40234 10.125 4.09766 8.04688C4.82422 5.87891 6.69141 4.26562 8.92969 3.87109C9.53125 3.76562 10.4297 3.76172 11.0391 3.86719Z" fill="currentColor"/>
	<path d="M9.30469 6.29297C8.4375 6.4375 7.49609 7.02734 6.97266 7.75781C6.46484 8.46484 6.25 9.12891 6.25 10C6.25 10.4922 6.30078 10.8203 6.43359 11.2109C6.86719 12.5 8.02734 13.4961 9.33594 13.707C9.66016 13.7617 10.3398 13.7617 10.6641 13.707C11.6133 13.5547 12.5508 12.9492 13.1055 12.1328C13.5625 11.4531 13.75 10.8398 13.75 10C13.75 9.16016 13.5625 8.54688 13.1055 7.86719C12.5508 7.05078 11.6133 6.44531 10.6641 6.29297C10.3633 6.24219 9.60156 6.24609 9.30469 6.29297ZM10.5977 7.60156C11.4727 7.82813 12.1719 8.52734 12.3984 9.40234C12.4805 9.70703 12.4805 10.293 12.3984 10.5977C12.1719 11.4727 11.4727 12.1719 10.5977 12.3984C10.293 12.4805 9.70703 12.4805 9.40234 12.3984C8.69922 12.2188 8.09766 11.7266 7.78125 11.0742C7.60938 10.7266 7.53906 10.4102 7.53906 10C7.53906 9.58984 7.60938 9.27344 7.78125 8.92578C8.08984 8.28906 8.65625 7.81641 9.35547 7.61328C9.66016 7.52344 10.2773 7.51953 10.5977 7.60156Z" fill="currentColor"/>
</svg>
