<svg viewBox="0 0 20 20" fill="none" xmlns="http://www.w3.org/2000/svg">
	<path d="M3.27734 0.988281C3.18359 1.03906 3.05469 1.15625 2.98828 1.24609C2.875 1.41016 2.87109 1.42188 2.85938 1.97266L2.84766 2.53125L2.27344 2.54688C1.75781 2.55859 1.67969 2.57031 1.50391 2.65234C1.25781 2.77734 1.01953 3.01172 0.898438 3.26172L0.800781 3.45703V10.8203V18.1836L0.910156 18.4062C1.02734 18.6484 1.23438 18.8555 1.49219 18.9922L1.66016 19.082H7.92969H14.1992L14.3672 18.9922C14.625 18.8555 14.832 18.6484 14.9492 18.4062L15.0586 18.1836L15.0703 14.9766L15.082 11.7695L16.4531 10.1328C17.207 9.23438 17.9609 8.33203 18.1289 8.13281L18.4375 7.76562L18.5742 7.90234C18.7148 8.04297 18.7734 8.19141 18.7344 8.32812C18.7227 8.37891 18.1133 9.13672 17.3828 10.0156C16.5586 11.0078 16.0547 11.6484 16.0547 11.6992C16.0547 11.9141 16.332 12.0117 16.4805 11.8516C16.7852 11.5312 19.0898 8.69922 19.1445 8.57422C19.2969 8.24609 19.2227 7.89453 18.9375 7.58984L18.7383 7.38281L18.8164 7.29297C19.0508 7.03906 19.1055 6.58203 18.9375 6.27734C18.8281 6.07812 17.1875 4.6875 16.9492 4.59375C16.7461 4.51172 16.4219 4.51562 16.2305 4.60547C16.0664 4.67969 15.9336 4.81641 15.4102 5.44141L15.0977 5.8125L15.0781 4.63672L15.0586 3.45703L14.918 3.20312C14.7539 2.90625 14.4922 2.68359 14.2031 2.59766C14.0742 2.55859 13.8398 2.53906 13.5117 2.53906H13.0117L13 1.97656C12.9883 1.41406 12.9883 1.41406 12.8672 1.24219C12.6914 1.00781 12.4727 0.898438 12.1602 0.898438C11.8633 0.898438 11.6641 0.988281 11.4922 1.19141C11.3281 1.39062 11.2891 1.56641 11.2891 2.08594V2.53906H10.7031H10.1172V2.07812C10.1172 1.54297 10.0859 1.40234 9.91797 1.19922C9.74609 0.992188 9.54297 0.898438 9.26172 0.898438C8.97656 0.898438 8.87891 0.933594 8.69141 1.10156C8.44922 1.3125 8.39844 1.46875 8.39844 2.03906V2.53906H7.87109H7.34375V2.08594C7.34375 1.56641 7.30469 1.39062 7.14062 1.19141C6.95312 0.96875 6.75781 0.886719 6.42578 0.90625C6.07812 0.921875 5.88281 1.04297 5.72656 1.32422C5.63281 1.50391 5.625 1.54688 5.625 2.02734V2.53906H5.09766H4.57031V2.08594C4.57031 1.56641 4.53125 1.39062 4.36328 1.1875C4.12109 0.894531 3.625 0.804688 3.27734 0.988281ZM2.85156 3.41797C2.85156 3.98828 2.94922 4.20703 3.28906 4.37891C3.65234 4.56641 4.05859 4.49609 4.32812 4.19922C4.52344 3.99219 4.57031 3.83203 4.57031 3.36719V3.00781H5.09375H5.61719L5.63281 3.47266C5.64453 3.91797 5.64844 3.94531 5.76172 4.10938C5.9375 4.35547 6.16797 4.47266 6.48438 4.47266C6.76172 4.46875 6.90625 4.41406 7.08594 4.23438C7.28125 4.03516 7.32031 3.91797 7.33594 3.44531L7.35156 3.00781H7.87109H8.39062L8.40625 3.46875C8.41797 3.89453 8.42578 3.94531 8.52344 4.09375C8.58203 4.17969 8.71484 4.30469 8.81641 4.36328C8.97266 4.45312 9.04688 4.47266 9.25781 4.47266C9.53516 4.46875 9.67578 4.41406 9.85938 4.23047C10.0586 4.03516 10.1172 3.85156 10.1172 3.40625V3.00781H10.7031H11.2891V3.36719C11.2891 3.83203 11.3359 3.99219 11.5312 4.20312C11.9062 4.60938 12.5469 4.56641 12.8711 4.10938C12.9844 3.94531 12.9883 3.91797 13 3.47266L13.0156 3.00781H13.4805C13.9922 3.00781 14.1523 3.05078 14.3516 3.23438C14.6016 3.46875 14.6094 3.51172 14.6094 5.02734V6.40234L14.0938 7.01953L13.5742 7.63281L13.5547 7.05078C13.5352 6.54688 13.5195 6.44141 13.4414 6.28125C13.3398 6.07031 13.1797 5.91797 12.9414 5.8125C12.7852 5.74219 12.582 5.74219 7.85938 5.75L2.94141 5.76172L2.75 5.87891C2.63281 5.95312 2.51562 6.07031 2.44141 6.1875L2.32422 6.37891L2.3125 11.5938C2.30469 16.7969 2.30469 16.8086 2.38281 16.9766C2.42969 17.0664 2.53516 17.207 2.61719 17.2812C2.92188 17.5547 2.64453 17.543 8.01172 17.5312L12.832 17.5195L12.9883 17.4336C13.1914 17.3242 13.375 17.1289 13.4648 16.9336C13.5312 16.7891 13.5352 16.6016 13.5469 14.6523L13.5586 12.5273L13.8398 12.1914L14.1211 11.8516L14.2539 11.9414C14.3281 11.9922 14.4375 12.0312 14.5 12.0312H14.6094L14.6016 15.0508L14.5898 18.0742L14.4727 18.2617C14.3906 18.3984 14.2969 18.4805 14.1602 18.5508L13.9688 18.6523H7.92969H1.89062L1.69922 18.5508C1.5625 18.4805 1.46875 18.3984 1.38672 18.2617L1.26953 18.0742L1.25781 10.9023C1.25 5.8125 1.25781 3.6875 1.28906 3.58203C1.34375 3.39062 1.54297 3.16797 1.73828 3.08203C1.86328 3.02344 1.99609 3.00781 2.375 3.00781H2.85156V3.41797ZM16.8594 5.08594C17.1484 5.30859 18.3867 6.34766 18.4688 6.43359C18.5312 6.5 18.5547 6.57422 18.5547 6.69531C18.5547 6.84766 18.5234 6.89844 18.1602 7.33984C17.8008 7.77344 17.7578 7.8125 17.6953 7.76562C17.5234 7.64453 15.5898 6.03125 15.5898 6.01172C15.582 5.95703 16.2891 5.13672 16.3945 5.07031C16.543 4.97656 16.7266 4.98438 16.8594 5.08594ZM12.8867 6.34375C12.9531 6.41016 13.0273 6.52344 13.0469 6.59766C13.0664 6.67578 13.0859 7.07031 13.0859 7.48047V8.22266L12.5391 8.875C11.9805 9.55078 11.9141 9.67188 11.9727 9.91016C11.9844 9.97266 12.0508 10.0859 12.1133 10.168L12.2305 10.3125L11.1562 11.6055C10.5664 12.3164 10.043 12.9766 9.99609 13.0781C9.92578 13.2227 9.90625 13.332 9.90625 13.5781C9.90234 13.8555 9.91797 13.9219 10.0234 14.125L10.1406 14.3555L9.89453 14.6602C9.75781 14.8281 9.64844 15 9.64844 15.0469C9.64844 15.168 9.76172 15.2734 9.88672 15.2734C9.98047 15.2734 10.0469 15.2148 10.2617 14.9648L10.5234 14.6523L10.6602 14.7148C10.7422 14.75 10.9219 14.7773 11.0938 14.7773C11.6367 14.7812 11.7852 14.6719 12.6367 13.6406L13.0664 13.1211L13.0781 14.7734C13.0859 15.6836 13.0781 16.5 13.0664 16.5898C13.0547 16.6797 13.0039 16.8008 12.9609 16.8594C12.7852 17.082 13.0195 17.0703 7.90625 17.0703C2.68359 17.0703 3.01172 17.0859 2.84766 16.8203C2.77734 16.7031 2.77344 16.5195 2.77344 11.6211C2.77344 6 2.75391 6.44922 3.02344 6.28516C3.14062 6.21094 3.27344 6.21094 7.95703 6.21875L12.7695 6.23047L12.8867 6.34375ZM13.1641 11.0586C13.4531 11.2969 13.7031 11.5039 13.7188 11.5195C13.75 11.5469 12.125 13.5352 12.0703 13.5352C12.0547 13.5352 11.793 13.3281 11.4883 13.0781L10.9336 12.625L11.7656 11.625C12.2227 11.0742 12.6055 10.625 12.6172 10.625C12.6289 10.625 12.875 10.8203 13.1641 11.0586Z" fill="currentColor"/>
	<path d="M3.78906 8.125C3.69141 8.22266 3.6875 8.36719 3.78125 8.44922C3.84766 8.51172 4.13281 8.51562 7.10156 8.51562C10.3438 8.51562 10.3516 8.51562 10.4336 8.43359C10.5273 8.33984 10.5117 8.17969 10.4023 8.09375C10.3516 8.05859 9.62891 8.04688 7.10156 8.04688C3.91797 8.04688 3.86719 8.04688 3.78906 8.125Z" fill="currentColor"/>
	<path d="M3.77344 9.75C3.69531 9.82422 3.69531 9.96094 3.76562 10.0625C3.82031 10.1328 3.90625 10.1367 7.02344 10.1484C9.08203 10.1523 10.2617 10.1445 10.3281 10.1172C10.4805 10.0625 10.5352 9.91016 10.4531 9.78516L10.3906 9.6875H7.10938C4.18359 9.6875 3.82812 9.69531 3.77344 9.75Z" fill="currentColor"/>
	<path d="M3.78906 11.3672C3.69141 11.4648 3.6875 11.6094 3.78125 11.6914C3.84766 11.7539 4.13281 11.7578 7.10156 11.7578C10.3438 11.7578 10.3516 11.7578 10.4336 11.6758C10.5273 11.582 10.5117 11.4219 10.4023 11.3359C10.3516 11.3008 9.62891 11.2891 7.10156 11.2891C3.91797 11.2891 3.86719 11.2891 3.78906 11.3672Z" fill="currentColor"/>
	<path d="M3.77344 12.9922C3.70312 13.0625 3.69141 13.1758 3.75 13.2852C3.78906 13.3555 3.85156 13.3594 5.47266 13.3594H7.14844L7.19531 13.2617C7.22656 13.1914 7.23047 13.125 7.20312 13.0547L7.16797 12.9492L5.5 12.9375C4.02344 12.9297 3.82812 12.9375 3.77344 12.9922Z" fill="currentColor"/>
</svg>
