<svg viewBox="0 0 20 20" fill="none" xmlns="http://www.w3.org/2000/svg">
	<path d="M0.230469 0.839842C0.175781 0.871092 0.0976562 0.937498 0.0625 0.992186C0.00390625 1.08203 0 1.80078 0 10.0039C0 18.8125 0 18.9141 0.078125 19.0234C0.121094 19.082 0.203125 19.1523 0.261719 19.1758C0.34375 19.207 2.76172 19.2187 9.70703 19.2109L19.043 19.1992L19.2578 19.0859C19.5469 18.9375 19.8203 18.6406 19.9219 18.375C20 18.1602 20 18.1289 19.9922 12.7617L19.9805 7.36328L19.8789 7.16797C19.668 6.77344 19.3086 6.51562 18.8711 6.4414C18.75 6.42187 17.6797 6.40625 16.4961 6.40625H14.3359V5.87109V5.33984L13.957 4.96094C13.7461 4.75 12.6992 3.72656 11.6328 2.67969L9.69141 0.781248H5.01172C1.05078 0.785154 0.316406 0.792967 0.230469 0.839842ZM9.22656 3.03515L9.23828 4.66797L9.36328 4.92969C9.51172 5.24609 9.76172 5.5 10.0703 5.65234L10.293 5.76172L11.9844 5.77344L13.6719 5.78515V6.08984V6.39844L12.7656 6.41406C11.7695 6.43359 11.668 6.45312 11.3516 6.68359C11.1523 6.82422 10.9648 7.07031 10.8672 7.3125C10.8086 7.46094 10.8008 7.71484 10.7891 9.67578L10.7773 11.875H6.28906C3.82422 11.875 1.77344 11.8867 1.73828 11.8984C1.64062 11.9375 1.55469 12.1406 1.58203 12.2695C1.63672 12.5156 1.33594 12.5 6.27734 12.5H10.7812V13.3789V14.2578H6.28516H1.78906L1.67578 14.3711C1.52734 14.5195 1.52734 14.6602 1.67578 14.8086L1.78906 14.9219H6.28516H10.7812V15.7812V16.6406L6.27344 16.6484C1.97266 16.6602 1.76172 16.6641 1.6875 16.7305C1.51953 16.8828 1.55078 17.1719 1.74219 17.2617C1.8125 17.293 3.07031 17.3047 6.30469 17.3047H10.7695L10.793 17.7227C10.8086 18.0937 10.8438 18.2617 10.957 18.5273C10.9844 18.5898 10.7227 18.5937 5.80469 18.5937H0.625V10V1.40625H4.91797H9.21484L9.22656 3.03515ZM11.9883 3.95703L13.2188 5.16015L11.8516 5.14844L10.4883 5.13672L10.3125 5.03906C10.2188 4.98437 10.0859 4.86328 10.0195 4.77344L9.90234 4.60156L9.89062 3.25L9.87891 1.89453L10.3203 2.32812C10.5625 2.5625 11.3164 3.29687 11.9883 3.95703ZM19.0508 7.19531C19.1445 7.25781 19.2422 7.36719 19.293 7.46875L19.375 7.64062V12.8164C19.375 17.75 19.3711 17.9961 19.3008 18.1445C19.2227 18.3242 19.0312 18.5 18.875 18.5469C18.8164 18.5625 17.2422 18.5742 15.3711 18.5742C12.043 18.5742 11.9688 18.5742 11.8398 18.4961C11.7656 18.4531 11.6523 18.3516 11.5859 18.2695L11.4648 18.1172L11.4531 12.918C11.4453 9.38281 11.4531 7.66797 11.4844 7.57422C11.5391 7.375 11.668 7.23047 11.8516 7.14453C12.0039 7.07422 12.168 7.07031 15.4531 7.08203L18.8906 7.08984L19.0508 7.19531Z" fill="currentColor"/>
	<path d="M4.57813 2.54687C3.53906 3.16797 3.4375 3.24609 3.4375 3.43359C3.4375 3.57031 3.58984 3.70703 3.82031 3.77344C3.94141 3.80859 4.05859 3.85156 4.07813 3.87109C4.09766 3.88672 4.05859 3.99609 3.98047 4.12109C3.48047 4.94922 2.77344 5.42578 1.94141 5.49219C1.68359 5.51562 1.60938 5.53906 1.53516 5.60937C1.42578 5.72266 1.41797 5.89453 1.52344 6.02344C1.72266 6.27734 2.92578 6.32812 3.59375 6.11328C4.35938 5.86719 4.99219 5.40625 5.53125 4.70312C5.69531 4.48828 5.77344 4.41797 5.81641 4.4375C6.34375 4.65625 6.54297 4.63281 6.61328 4.34375C6.625 4.29297 6.50781 3.80469 6.32813 3.17578C6.07031 2.25781 6.00781 2.07812 5.91797 2.00391C5.86328 1.95312 5.77344 1.91406 5.72656 1.91406C5.67578 1.91406 5.16016 2.19922 4.57813 2.54687ZM5.78125 3.66016C5.78125 3.69531 5.74219 3.70312 5.66406 3.6875C5.5 3.65234 5.39063 3.73828 5.17188 4.07031C4.96875 4.37891 4.31641 5.05469 4.10938 5.16797C4.04297 5.20703 3.98438 5.23047 3.98438 5.21875C3.98438 5.21094 4.06641 5.10937 4.16406 4.99219C4.51172 4.58594 4.88281 3.89844 4.88281 3.65625C4.88281 3.52344 4.77734 3.39844 4.62891 3.34375C4.57031 3.32031 4.65234 3.25781 5.03906 3.02734L5.52344 2.73828L5.65234 3.17578C5.72266 3.41797 5.78125 3.63672 5.78125 3.66016Z" fill="currentColor"/>
	<path d="M6.42578 5.00391C6.24609 5.10547 6.25 5.01953 6.25 7.97656C6.25 10.7305 6.25 10.7812 6.32813 10.8594C6.40234 10.9336 6.45703 10.9375 7.28125 10.9375H8.16016L8.23828 10.8359C8.32031 10.7344 8.32031 10.7031 8.32031 7.96484V5.19922L8.22656 5.08984L8.13281 4.98047L7.31641 4.96875C6.76953 4.96484 6.47656 4.97656 6.42578 5.00391ZM7.65625 7.96875V10.3125H7.26563H6.875V7.96875V5.625H7.26563H7.65625V7.96875Z" fill="currentColor"/>
	<path d="M4.0625 6.28906C4.01953 6.33203 3.97656 6.40625 3.96484 6.45312C3.95312 6.50391 3.94922 7.49609 3.95312 8.65625C3.96484 10.6758 3.96875 10.7773 4.03906 10.8555C4.10938 10.9336 4.14844 10.9375 4.98828 10.9375C5.80859 10.9375 5.86328 10.9336 5.9375 10.8594C6.01562 10.7812 6.01562 10.7305 6.01562 8.57422C6.01562 6.41797 6.01562 6.36719 5.9375 6.28906C5.86328 6.21484 5.80859 6.21094 5 6.21094C4.19531 6.21094 4.13672 6.21484 4.0625 6.28906ZM5.39062 8.57422V10.3125H5H4.60938V8.57422V6.83594H5H5.39062V8.57422Z" fill="currentColor"/>
	<path d="M1.76172 7.71875C1.68359 7.82031 1.67969 7.86328 1.67969 9.27734C1.67969 10.6914 1.68359 10.7344 1.76172 10.8359L1.83984 10.9375H2.71484C3.56641 10.9375 3.59375 10.9336 3.67188 10.8516C3.74609 10.7695 3.75 10.7227 3.75 9.27734V7.78516L3.66016 7.70312C3.57422 7.62109 3.53906 7.61719 2.70703 7.61719H1.83984L1.76172 7.71875ZM3.125 9.27734V10.3125H2.73438H2.34375V9.27734V8.24219H2.73438H3.125V9.27734Z" fill="currentColor"/>
	<path d="M11.7383 7.44141L11.6406 7.53516V9.43359V11.332L11.7383 11.4258L11.832 11.5234H15.4102H18.9883L19.082 11.4258L19.1797 11.332V9.43359V7.53516L19.082 7.44141L18.9883 7.34375H15.4102H11.832L11.7383 7.44141ZM18.5547 9.43359V10.8984H15.4102H12.2656V9.43359V7.96875H15.4102H18.5547V9.43359Z" fill="currentColor"/>
	<path d="M12.5977 11.7539C12.2695 11.9063 12.0703 12.2227 12.0703 12.5977C12.0703 13.1367 12.4375 13.4922 12.9922 13.4961C13.2305 13.4961 13.293 13.4805 13.4609 13.3789C13.5781 13.3047 13.6953 13.1875 13.7695 13.0703C13.8711 12.9023 13.8867 12.8398 13.8867 12.6016C13.8828 12.1875 13.6914 11.8828 13.332 11.7305C13.1523 11.6563 12.7852 11.668 12.5977 11.7539ZM13.1406 12.3867C13.2656 12.4844 13.2773 12.6602 13.1641 12.7734C13.0508 12.8867 12.875 12.875 12.7734 12.7461C12.6758 12.6211 12.6953 12.4766 12.8203 12.3711C12.9258 12.2852 13.0117 12.2852 13.1406 12.3867Z" fill="currentColor"/>
	<path d="M15.0195 11.7539C14.5742 11.957 14.3672 12.5156 14.5742 12.9688C14.7383 13.3359 14.9922 13.4922 15.4141 13.4961C15.6523 13.4961 15.7148 13.4805 15.8828 13.3789C16.3672 13.0781 16.4727 12.4219 16.1016 11.9883C16.0234 11.8984 15.8906 11.793 15.8047 11.7539C15.5938 11.6602 15.2266 11.6602 15.0195 11.7539ZM15.5703 12.3945C15.8203 12.6133 15.5625 12.9688 15.2695 12.8086C15.0938 12.7148 15.1055 12.4375 15.2891 12.3516C15.4141 12.2891 15.4531 12.2969 15.5703 12.3945Z" fill="currentColor"/>
	<path d="M17.4375 11.7539C17.3516 11.793 17.2187 11.8984 17.1406 11.9883C16.7695 12.4219 16.875 13.0781 17.3594 13.3789C17.5273 13.4805 17.5898 13.4961 17.8281 13.4961C18.3945 13.4922 18.75 13.1289 18.75 12.5547C18.7461 12.2109 18.5195 11.875 18.1953 11.7422C17.9961 11.6562 17.6367 11.6641 17.4375 11.7539ZM17.9414 12.3477C18.1914 12.4609 18.1211 12.8516 17.8555 12.8516C17.5859 12.8516 17.4727 12.5508 17.6797 12.3867C17.8008 12.293 17.8164 12.2891 17.9414 12.3477Z" fill="currentColor"/>
	<path d="M12.6602 14.1133C12.4648 14.1875 12.2266 14.4062 12.1445 14.5859C12.0469 14.7969 12.0469 15.1641 12.1445 15.3711C12.4609 16.0547 13.4492 16.082 13.7969 15.418C13.8633 15.293 13.8828 15.1836 13.8867 14.9766C13.8867 14.7383 13.8711 14.6758 13.7695 14.5078C13.6016 14.2383 13.3438 14.0898 13.0312 14.0742C12.9023 14.0703 12.7344 14.0859 12.6602 14.1133ZM13.1758 14.7969C13.2109 14.832 13.2422 14.9102 13.2422 14.9805C13.2422 15.2031 13.0078 15.3281 12.8398 15.1953C12.7031 15.0859 12.6758 14.9766 12.7539 14.8594C12.8633 14.6914 13.0234 14.668 13.1758 14.7969Z" fill="currentColor"/>
	<path d="M15.0156 14.1562C14.1914 14.5391 14.3945 15.8047 15.2969 15.8867C15.6328 15.918 15.8359 15.8477 16.0508 15.6328C16.3398 15.3398 16.4102 14.957 16.2344 14.5898C16.125 14.3555 16.0156 14.25 15.7812 14.1445C15.543 14.0352 15.2656 14.0391 15.0156 14.1562ZM15.6094 14.8086C15.7422 14.957 15.6562 15.1875 15.4414 15.25C15.3242 15.2852 15.1484 15.125 15.1484 14.9883C15.1484 14.7344 15.4375 14.6211 15.6094 14.8086Z" fill="currentColor"/>
	<path d="M17.4414 14.1562C17.207 14.2656 17.1016 14.375 16.9961 14.6094C16.8359 14.9609 16.9102 15.3477 17.1914 15.6328C17.3867 15.8281 17.5586 15.8984 17.8633 15.8984C18.4766 15.8984 18.8906 15.3008 18.707 14.6836C18.5547 14.1836 17.9336 13.9219 17.4414 14.1562ZM18.0469 14.8359C18.1523 14.9688 18.1445 15.0234 18.0078 15.1602C17.918 15.25 17.8711 15.2734 17.8047 15.2539C17.5195 15.168 17.4844 14.8242 17.75 14.7266C17.8633 14.6875 17.9609 14.7227 18.0469 14.8359Z" fill="currentColor"/>
	<path d="M17.168 16.043C17.125 16.0547 17.0508 16.0977 17.0039 16.1445C16.9141 16.2227 16.9141 16.2383 16.9141 17.1953C16.9141 18.457 16.8398 18.3711 17.9258 18.3516C18.8242 18.3359 18.75 18.4414 18.75 17.1992C18.75 16.6523 18.7344 16.2148 18.7109 16.1719C18.6445 16.0508 18.4531 16.0156 17.8359 16.0195C17.5117 16.0234 17.2109 16.0312 17.168 16.043ZM18.125 17.1875V17.6953H17.832H17.5391V17.1875V16.6797H17.832H18.125V17.1875Z" fill="currentColor"/>
	<path d="M12.6836 16.5078C11.9609 16.7383 11.8477 17.7617 12.5 18.1523C12.6836 18.2617 12.7461 18.2812 12.9687 18.2812C13.2852 18.2812 13.4922 18.1914 13.6758 17.9727C14.2852 17.2656 13.5781 16.2227 12.6836 16.5078ZM13.1641 17.1875C13.2773 17.3008 13.2656 17.4766 13.1406 17.5742C13.0117 17.6758 12.9258 17.6758 12.8203 17.5859C12.6953 17.4844 12.6758 17.3398 12.7734 17.2148C12.875 17.0859 13.0508 17.0742 13.1641 17.1875Z" fill="currentColor"/>
	<path d="M15.125 16.5039C14.4844 16.7031 14.2734 17.5508 14.75 18.0234C14.9375 18.207 15.125 18.2812 15.3984 18.2812C15.7031 18.2812 15.9102 18.1914 16.1016 17.9766C16.3516 17.6992 16.3984 17.3086 16.2266 16.9609C16.1094 16.7227 15.9375 16.5781 15.6797 16.5C15.457 16.4336 15.3438 16.4336 15.125 16.5039ZM15.5508 17.1523C15.7266 17.2461 15.707 17.5273 15.5195 17.6133C15.3086 17.7109 15.0742 17.5 15.1563 17.2891C15.2148 17.125 15.3945 17.0664 15.5508 17.1523Z" fill="currentColor"/>
</svg>
