<svg viewBox="0 0 20 20" fill="none" xmlns="http://www.w3.org/2000/svg">
	<path d="M4.14062 1.17188V2.34375H2.96875H1.79688V11.1719V20H8.24219H14.6875V18.8281V17.6562H16.4453H18.2031V10.7305V3.80859L16.2969 1.90234L14.3945 0H9.26562H4.14062V1.17188ZM13.5156 2.92969V4.6875H15.2734H17.0312V10.5859V16.4844H11.1719H5.3125V8.82812V1.17188H9.41406H13.5156V2.92969ZM15.4297 2.79297L16.1523 3.51562H15.418H14.6875V2.79297C14.6875 2.39453 14.6914 2.07031 14.6992 2.07031C14.7031 2.07031 15.0312 2.39453 15.4297 2.79297ZM4.14062 10.5859V17.6562H8.82812H13.5156V18.2422V18.8281H8.24219H2.96875V11.1719V3.51562H3.55469H4.14062V10.5859Z" fill="currentColor"/>
	<path d="M6.48438 2.92969V3.51562H8.24219H10V2.92969V2.34375H8.24219H6.48438V2.92969Z" fill="currentColor"/>
	<path d="M6.48438 5.27344V5.85938H8.24219H10V5.27344V4.6875H8.24219H6.48438V5.27344Z" fill="currentColor"/>
	<path d="M11.7578 7.07031V8.28125H10.5859H9.41406V8.86719V9.45312H8.24219H7.07031V11.2109V12.9688H11.1719H15.2734V9.41406V5.85938H13.5156H11.7578V7.07031ZM14.1016 9.41406V11.7969H13.5156H12.9297V9.41406V7.03125H13.5156H14.1016V9.41406ZM11.7578 10.625V11.7969H11.1719H10.5859V10.625V9.45312H11.1719H11.7578V10.625ZM9.41406 11.2109V11.7969H8.82812H8.24219V11.2109V10.625H8.82812H9.41406V11.2109Z" fill="currentColor"/>
	<path d="M6.48438 14.7266V15.3125H7.65625H8.82812V14.7266V14.1406H7.65625H6.48438V14.7266Z" fill="currentColor"/>
	<path d="M10 14.7266V15.3125H11.1719H12.3438V14.7266V14.1406H11.1719H10V14.7266Z" fill="currentColor"/>
	<path d="M13.5156 14.7266V15.3125H14.6875H15.8594V14.7266V14.1406H14.6875H13.5156V14.7266Z" fill="currentColor"/>
</svg>
