<svg viewBox="0 0 20 20" fill="none" xmlns="http://www.w3.org/2000/svg">
	<path d="M7.93359 1.07031L7.67969 2.14062L7.36719 2.26562C7.19141 2.33594 7.00391 2.41016 6.94922 2.43359C6.85547 2.46875 6.76562 2.42578 5.93359 1.91406C5.42969 1.60547 5.00391 1.34766 4.98438 1.33594C4.95312 1.31641 2.42188 3.82422 2.42188 3.875C2.42188 3.89062 2.67969 4.32031 2.99219 4.83203C3.45703 5.58984 3.55859 5.77344 3.53125 5.83984C3.51172 5.88672 3.4375 6.07422 3.36328 6.25781L3.23438 6.58984L2.26953 6.81641C1.74219 6.94141 1.25 7.05859 1.17969 7.07812L1.05469 7.11328L1.0625 8.91797L1.07422 10.7188L2.14453 10.9766L3.21484 11.2305L3.38672 11.6211C3.48047 11.8359 3.55469 12.0273 3.55469 12.043C3.55469 12.0625 3.31641 12.4648 3.01953 12.9414C2.72656 13.418 2.46875 13.8398 2.44531 13.8789C2.40625 13.9453 2.51172 14.0586 3.27344 14.7969L4.14453 15.6445L4.04688 16.0547C3.89844 16.668 3.86719 17.1367 3.86719 18.6367V20H10.0391H16.2109V18.6406C16.2109 17.1641 16.1758 16.6445 16.0352 16.0664L15.9453 15.6914L16.7695 14.8164C17.4453 14.0938 17.5859 13.9258 17.5508 13.8711C17.5312 13.8359 17.2695 13.4141 16.9727 12.9336L16.4375 12.0625L16.582 11.7031C16.6602 11.5078 16.7422 11.3203 16.7578 11.2891C16.7812 11.25 17.1562 11.1445 17.8594 10.9766L18.9258 10.7188L18.9375 8.91797L18.9453 7.11328L18.8203 7.07812C18.75 7.05859 18.2578 6.94141 17.7305 6.81641L16.7656 6.58984L16.6367 6.25781C16.5625 6.07422 16.4883 5.88672 16.4688 5.83984C16.4414 5.77344 16.543 5.58984 17.0078 4.83203C17.3203 4.32422 17.5781 3.89453 17.5781 3.875C17.5781 3.85938 17.0078 3.27734 16.3125 2.58203C15.1094 1.37891 15.0469 1.32031 14.957 1.36719C14.9102 1.39453 14.5 1.64453 14.0469 1.92578C13.5938 2.20312 13.2031 2.4375 13.1758 2.44922C13.1523 2.46094 12.9492 2.39453 12.7227 2.30469L12.3203 2.14062L12.0664 1.07031L11.8164 0H10H8.18359L7.93359 1.07031ZM11.0586 2.16016C11.1836 2.67188 11.293 3.10156 11.3047 3.11719C11.3164 3.12891 11.7422 3.3125 12.25 3.51953C13.0273 3.84375 13.1875 3.89844 13.2539 3.85938C13.3008 3.83594 13.6758 3.60547 14.0938 3.34766L14.8516 2.87891L15.4336 3.46094C15.7812 3.80859 16.0078 4.0625 15.9961 4.09375C15.9844 4.125 15.7578 4.50391 15.4883 4.9375L15 5.72656L15.3867 6.65625C15.6016 7.16797 15.7852 7.59375 15.7969 7.60547C15.8086 7.61719 16.2383 7.72656 16.7461 7.85156L17.6758 8.07031L17.6875 8.91016L17.6953 9.75L17.4922 9.79688C17.3789 9.82422 16.9492 9.92578 16.5352 10.0234L15.7891 10.2031L15.4062 11.1211C15.1992 11.625 15.0273 12.0586 15.0273 12.0859C15.0273 12.1133 15.25 12.4961 15.5195 12.9375C15.793 13.3789 16.0156 13.75 16.0156 13.7695C16.0156 13.8086 15.4297 14.4531 15.3945 14.4531C15.3789 14.4531 15.2773 14.3281 15.1758 14.1719C14.6484 13.4023 13.7188 12.6562 12.8477 12.2969L12.543 12.1719L12.8633 11.8398C13.5781 11.0938 13.9297 10.2891 13.9727 9.28906C14.0273 8.05469 13.6172 7.02734 12.7344 6.19922C10.8125 4.39453 7.68359 4.95703 6.49609 7.32422C5.97266 8.35938 5.96094 9.70312 6.46484 10.7695C6.65234 11.1719 6.88281 11.4961 7.23438 11.8594L7.53906 12.1719L7.23047 12.2969C6.35938 12.6562 5.42969 13.4023 4.90625 14.1719L4.71484 14.4492L4.35156 14.1133C4.14844 13.9297 3.98438 13.7695 3.98438 13.7578C3.98438 13.7461 4.20703 13.3789 4.48047 12.9375C4.75 12.4961 4.97266 12.1133 4.97266 12.0859C4.97266 12.0586 4.80078 11.625 4.59375 11.1211L4.21094 10.2031L3.38672 10.0039C2.92969 9.89453 2.5 9.79297 2.42969 9.78125L2.30469 9.75391L2.3125 8.91406L2.32422 8.07422L3.25391 7.85156C3.76562 7.72656 4.19141 7.61719 4.20312 7.60547C4.21484 7.59375 4.39844 7.16797 4.61328 6.65625L5 5.72656L4.48438 4.89062L3.97266 4.05469L4.55859 3.46875L5.14844 2.87891L5.90625 3.34766C6.32422 3.60547 6.70312 3.83594 6.74609 3.85938C6.81641 3.89844 6.96875 3.84766 7.75781 3.51953C8.37891 3.26172 8.69922 3.10547 8.71875 3.05859C8.73438 3.01953 8.83594 2.60938 8.94531 2.14844C9.05469 1.6875 9.15234 1.28516 9.16016 1.25781C9.17578 1.21875 9.36328 1.21094 10.0078 1.21875L10.8398 1.23047L11.0586 2.16016ZM10.6875 6.44531C11.2031 6.57422 11.5312 6.76562 11.9375 7.16797C12.5 7.73047 12.75 8.30859 12.7539 9.0625C12.7539 9.5625 12.6992 9.79688 12.4805 10.2539C12.125 10.9922 11.4375 11.5547 10.6641 11.7344C10.3359 11.8125 9.75391 11.8125 9.41406 11.7344C8.89844 11.6172 8.32031 11.2539 7.9375 10.8047C7.74219 10.5742 7.45312 10 7.37891 9.6875C7.29297 9.33594 7.3125 8.70312 7.41797 8.35938C7.65625 7.58203 8.23828 6.90234 8.92969 6.59766C9.45312 6.36328 10.1328 6.30469 10.6875 6.44531ZM11.5703 13.1797C13.1914 13.5625 14.4102 14.7344 14.832 16.3203C14.9258 16.6719 14.9375 16.7734 14.9531 17.7422L14.9688 18.7891H10.0391H5.10938L5.125 17.7422C5.14062 16.7734 5.15234 16.6719 5.24609 16.3203C5.67969 14.6953 7.04297 13.4219 8.63281 13.1641C8.79297 13.1406 8.95312 13.1133 8.98438 13.1055C9.01562 13.0977 9.55469 13.0977 10.1758 13.1055C11.0352 13.1133 11.3711 13.1328 11.5703 13.1797Z" fill="currentColor"/>
</svg>
