<svg width="34" height="24" viewBox="0 0 34 24" fill="none" xmlns="http://www.w3.org/2000/svg">
	<path d="M5.75189 6.4721V10.2891H11.6455C11.9111 10.2891 12.1102 10.3337 12.2431 10.423C12.5308 10.6239 12.8297 10.8638 13.1396 11.1429C13.4495 11.4219 13.776 11.7567 14.1191 12.1473C14.2298 12.2925 14.2851 12.4096 14.2851 12.4989C14.2851 12.5993 14.2298 12.711 14.1191 12.8337C13.776 13.2243 13.4495 13.5592 13.1396 13.8382C12.8297 14.1171 12.5308 14.3571 12.2431 14.5581C12.0881 14.6473 11.8889 14.692 11.6455 14.692H5.75189V23.1127C5.75189 23.4475 5.67995 23.6819 5.53607 23.8159C5.40326 23.9386 5.17083 24 4.8388 24H1.30266C0.970638 24 0.732682 23.9386 0.588802 23.8159C0.45599 23.6819 0.389583 23.4475 0.389583 23.1127V4.47991C0.389583 3.36384 0.489193 2.48215 0.688412 1.83482C0.898698 1.17634 1.29713 0.70759 1.88372 0.428571C2.48138 0.138393 3.35019 -0.00669643 4.49016 -0.00669643H12.3261C12.5918 -0.00669643 12.7909 0.0379464 12.9237 0.127232C13.2115 0.328125 13.5104 0.56808 13.8202 0.847098C14.1302 1.12612 14.4567 1.46094 14.7997 1.85157C14.9105 1.99665 14.9658 2.11384 14.9658 2.20312C14.9658 2.30357 14.9105 2.41518 14.7997 2.53794C14.4567 2.92857 14.1302 3.26339 13.8202 3.54241C13.5104 3.82143 13.2115 4.06138 12.9237 4.26227C12.7688 4.35157 12.5696 4.39621 12.3261 4.39621H7.64447C6.914 4.39621 6.41595 4.55246 6.15033 4.86496C5.8847 5.17745 5.75189 5.71317 5.75189 6.4721ZM23.748 6.4721V10.2891H29.6415C29.9072 10.2891 30.1064 10.3337 30.2391 10.423C30.5269 10.6239 30.8258 10.8638 31.1357 11.1429C31.4456 11.4219 31.7721 11.7567 32.1152 12.1473C32.2259 12.2925 32.2812 12.4096 32.2812 12.4989C32.2812 12.5993 32.2259 12.711 32.1152 12.8337C31.7721 13.2243 31.4456 13.5592 31.1357 13.8382C30.8258 14.1171 30.5269 14.3571 30.2391 14.5581C30.0842 14.6473 29.885 14.692 29.6415 14.692H23.748V23.1127C23.748 23.4475 23.676 23.6819 23.5322 23.8159C23.3994 23.9386 23.1669 24 22.8349 24H19.2987C18.9668 24 18.7288 23.9386 18.5849 23.8159C18.452 23.6819 18.3857 23.4475 18.3857 23.1127V4.47991C18.3857 3.36384 18.4852 2.48215 18.6845 1.83482C18.8948 1.17634 19.2932 0.70759 19.8798 0.428571C20.4775 0.138393 21.3463 -0.00669643 22.4862 -0.00669643H30.3222C30.5879 -0.00669643 30.787 0.0379464 30.9198 0.127232C31.2076 0.328125 31.5064 0.56808 31.8163 0.847098C32.1263 1.12612 32.4528 1.46094 32.7958 1.85157C32.9066 1.99665 32.9619 2.11384 32.9619 2.20312C32.9619 2.30357 32.9066 2.41518 32.7958 2.53794C32.4528 2.92857 32.1263 3.26339 31.8163 3.54241C31.5064 3.82143 31.2076 4.06138 30.9198 4.26227C30.7649 4.35157 30.5657 4.39621 30.3222 4.39621H25.6405C24.9101 4.39621 24.412 4.55246 24.1465 4.86496C23.8808 5.17745 23.748 5.71317 23.748 6.4721Z" fill="currentColor"/>
</svg>
