<svg viewBox="0 0 20 20" fill="none" xmlns="http://www.w3.org/2000/svg">
	<path d="M1.17578 0.078125C0.710938 0.246094 0.367188 0.558594 0.144531 1.01172L0.0195312 1.26953V10V18.7305L0.144531 18.9883C0.371094 19.4531 0.722656 19.7617 1.19531 19.9219C1.42188 20 1.52734 20 7.55859 19.9922L13.6914 19.9805L13.9648 19.8477C14.5273 19.5703 14.8906 19.0547 14.9609 18.4297C14.9844 18.25 15 17.0859 15.0039 15.8398L15.0078 13.5742L17.3867 11.2305C20.082 8.57813 20 8.67578 20 8.125C20 7.65625 19.8984 7.49219 19.1719 6.76953C18.4609 6.06641 18.3125 5.97656 17.8516 5.97656C17.3477 5.97656 17.2852 6.01953 16.0664 7.23828L15 8.30078V5.09766C15 3.32813 14.9844 1.75 14.9609 1.57031C14.8906 0.945312 14.5273 0.429688 13.9648 0.152344L13.6914 0.0195312L7.53906 0.0117188C1.54688 0.00390625 1.38281 0.00390625 1.17578 0.078125ZM13.4688 1.26953C13.5391 1.3125 13.6367 1.41016 13.6836 1.48438L13.7695 1.62109L13.7812 5.56641L13.7891 9.50781L12.25 11.0547L10.707 12.5977L9.89453 14.3359C9.17188 15.8867 9.08203 16.0977 9.08203 16.2773C9.08203 16.6172 9.32031 16.8555 9.66016 16.8555C9.83984 16.8555 10.0508 16.7656 11.6016 16.043C13.2461 15.2734 13.3516 15.2188 13.5664 15.0078L13.793 14.7852L13.7812 16.582C13.7695 18.3516 13.7695 18.3828 13.6836 18.5156C13.6367 18.5898 13.5391 18.6875 13.4688 18.7305C13.3398 18.8086 13.2695 18.8086 7.48047 18.8086C1.69141 18.8086 1.62109 18.8086 1.49219 18.7305C1.42188 18.6875 1.32812 18.5977 1.28516 18.5313C1.21094 18.4102 1.21094 18.2422 1.21094 9.99609C1.21094 1.875 1.21484 1.57812 1.28516 1.47266C1.375 1.33594 1.5 1.24609 1.65625 1.20703C1.72266 1.19141 4.37891 1.18359 7.55859 1.18359C13.2656 1.19141 13.3398 1.19141 13.4688 1.26953ZM18.3398 7.65625L18.8086 8.125L18.3398 8.57031L17.8711 9.01563L17.4023 8.55078L16.9336 8.08594L17.3828 7.63672C17.6289 7.39063 17.8398 7.1875 17.8516 7.1875C17.8633 7.1875 18.082 7.39844 18.3398 7.65625ZM14.8281 12.043L12.6484 14.1992L11.957 14.5234C11.5781 14.7031 11.1953 14.8789 11.1055 14.9219L10.9453 14.9922L11.0938 14.6758C11.1719 14.5 11.3477 14.1172 11.4844 13.8281L11.7266 13.3008L13.8984 11.125L16.0742 8.94531L16.543 9.41406L17.0117 9.88672L14.8281 12.043Z" fill="currentColor"/>
	<path d="M2.79688 3.86328C2.61719 3.98438 2.53906 4.13281 2.53906 4.375C2.53906 4.61719 2.61719 4.76562 2.79688 4.88672C2.90625 4.95703 3.07031 4.96094 7.5 4.96094C11.9297 4.96094 12.0938 4.95703 12.2031 4.88672C12.3828 4.76562 12.4609 4.61719 12.4609 4.375C12.4609 4.13281 12.3828 3.98438 12.2031 3.86328C12.0938 3.79297 11.9297 3.78906 7.5 3.78906C3.07031 3.78906 2.90625 3.79297 2.79688 3.86328Z" fill="currentColor"/>
	<path d="M2.79688 6.98828C2.61719 7.10938 2.53906 7.25781 2.53906 7.5C2.53906 7.74219 2.61719 7.89062 2.79688 8.01172C2.90625 8.08203 3.05078 8.08594 6.5625 8.08594C10.0742 8.08594 10.2188 8.08203 10.3281 8.01172C10.5078 7.89062 10.5859 7.74219 10.5859 7.5C10.5859 7.25781 10.5078 7.10938 10.3281 6.98828C10.2188 6.91797 10.0742 6.91406 6.5625 6.91406C3.05078 6.91406 2.90625 6.91797 2.79688 6.98828Z" fill="currentColor"/>
	<path d="M2.79688 10.1133C2.61719 10.2344 2.53906 10.3828 2.53906 10.625C2.53906 10.8672 2.61719 11.0156 2.79688 11.1367C2.90625 11.207 3.03125 11.2109 5.625 11.2109C8.21875 11.2109 8.34375 11.207 8.45312 11.1367C8.63281 11.0156 8.71094 10.8672 8.71094 10.625C8.71094 10.3828 8.63281 10.2344 8.45312 10.1133C8.34375 10.043 8.21875 10.0391 5.625 10.0391C3.03125 10.0391 2.90625 10.043 2.79688 10.1133Z" fill="currentColor"/>
</svg>
