<svg viewBox="0 0 20 20" fill="none" xmlns="http://www.w3.org/2000/svg">
	<path d="M9.64453 1.41797C9.52734 1.48828 9.10547 1.76172 8.70703 2.02344L7.98047 2.5H5.60156C3.29688 2.5 3.21875 2.50391 3.09375 2.57812C3.02344 2.62109 2.93359 2.71094 2.89062 2.78125C2.81641 2.90234 2.8125 2.98047 2.8125 4.39844V5.88672L2.24609 6.25391C1.76953 6.5625 1.66406 6.64844 1.60156 6.78125C1.52344 6.9375 1.52344 7.03906 1.52344 12.5625C1.52344 16.1445 1.53906 18.2344 1.5625 18.3242C1.58203 18.3984 1.65625 18.5117 1.72266 18.5781L1.83984 18.6914H10H18.1602L18.2773 18.5781C18.3438 18.5117 18.418 18.3984 18.4375 18.3242C18.4609 18.2344 18.4766 16.1445 18.4766 12.5625C18.4766 7.03516 18.4766 6.9375 18.3984 6.78125C18.3359 6.64844 18.2305 6.5625 17.7539 6.25391L17.1875 5.88281V4.39844C17.1875 2.98047 17.1836 2.90234 17.1094 2.78125C17.0664 2.71094 16.9766 2.62109 16.9062 2.57812C16.7812 2.50391 16.7031 2.5 14.3984 2.5H12.0195L11.1562 1.9375C10.6797 1.62891 10.2539 1.35547 10.207 1.33203C10.0547 1.25391 9.86719 1.28125 9.64453 1.41797ZM10.3867 2.23438L10.7578 2.48047L10.3789 2.49219C10.1719 2.49609 9.82812 2.49609 9.62109 2.49219L9.24609 2.48047L9.61328 2.23828C9.81641 2.10156 9.98828 1.99219 10 1.99219C10.0078 1.99219 10.1836 2.10156 10.3867 2.23438ZM16.5625 6.87109V10.6133L13.2969 12.7695C11.5 13.957 10.0078 14.9219 9.98047 14.9141C9.95312 14.9062 8.47266 13.9375 6.68359 12.7578L3.4375 10.6133V6.86719V3.125H10H16.5625V6.87109ZM2.8125 8.45703V10.1914L2.5 9.99219L2.1875 9.78906V8.4375V7.08984L2.47266 6.90625C2.625 6.80859 2.76562 6.72266 2.78516 6.72266C2.80078 6.71875 2.8125 7.5 2.8125 8.45703ZM17.5195 6.90234L17.8125 7.08984V8.44141V9.79297L17.5 9.99219L17.1875 10.1914V8.45703C17.1875 7.5 17.1953 6.71875 17.207 6.71875C17.2188 6.71875 17.3594 6.80078 17.5195 6.90234ZM4.32031 12C5.46484 12.7578 6.40625 13.3867 6.40625 13.3984C6.40625 13.4102 5.45703 14.3672 4.29688 15.5273L2.1875 17.6367V14.1289C2.1875 12.2031 2.19922 10.625 2.21094 10.625C2.22266 10.625 3.17188 11.2461 4.32031 12ZM17.8125 14.1094L17.8086 17.5977L15.7227 15.4883C14.4062 14.1562 13.6523 13.3633 13.6758 13.3398C13.7305 13.2852 17.75 10.6289 17.7852 10.6289C17.8008 10.625 17.8125 12.1953 17.8125 14.1094ZM14.7617 15.4805C15.6992 16.4297 16.6484 17.3984 16.8711 17.6289L17.2812 18.0469H9.99609H2.71484L4.84375 15.918C6.01562 14.7461 6.98438 13.7891 7.00391 13.7891C7.01953 13.7891 7.37891 14.0195 7.80469 14.3047C9.61328 15.5117 9.79688 15.625 10 15.625C10.2031 15.625 10.4023 15.5039 12.2852 14.2461C12.6914 13.9727 13.0352 13.75 13.043 13.75C13.0508 13.75 13.8242 14.5273 14.7617 15.4805Z" fill="currentColor"/>
	<path d="M3.88672 5.72266C3.75391 5.85156 3.75391 6.0625 3.88672 6.19141C3.97266 6.28125 4.01172 6.28906 4.35547 6.28906H4.72656V7.26563C4.72656 8.19141 4.73047 8.24609 4.80469 8.32031C4.89062 8.40625 5.10938 8.42578 5.23438 8.35938C5.36719 8.28906 5.39062 8.10156 5.39062 7.18359V6.28906H5.73828C6.02734 6.28906 6.09766 6.27734 6.1875 6.20703C6.26953 6.14453 6.28906 6.09375 6.28906 5.95703C6.28906 5.82031 6.26953 5.76953 6.1875 5.70703C6.08594 5.62891 6.03516 5.625 5.03125 5.625H3.98047L3.88672 5.72266Z" fill="currentColor"/>
	<path d="M6.66016 5.72266L6.5625 5.81641V7.00391C6.5625 8.14844 6.56641 8.19531 6.64453 8.29687C6.75391 8.4375 6.99219 8.44141 7.12891 8.30078C7.22266 8.21094 7.22656 8.17969 7.22656 7.77344V7.34375H7.69531H8.16406V7.78516C8.16406 8.19922 8.17188 8.23437 8.25391 8.3125C8.36719 8.42187 8.58984 8.42578 8.71484 8.32422L8.80859 8.25L8.82031 7.08594C8.82812 6.29687 8.81641 5.89062 8.78906 5.81641C8.70312 5.61719 8.41797 5.5625 8.26172 5.72266C8.16797 5.8125 8.16406 5.84375 8.16406 6.25V6.67969H7.69531H7.22656V6.28516C7.22656 5.77344 7.15234 5.62891 6.88281 5.625C6.79688 5.625 6.72266 5.65625 6.66016 5.72266Z" fill="currentColor"/>
	<path d="M9.98828 5.71094C9.84375 5.84375 9.04688 8.00781 9.08203 8.16406C9.11328 8.3125 9.23828 8.39844 9.41406 8.39844C9.59766 8.39844 9.69141 8.29688 9.80859 7.95703L9.90234 7.69531H10.1992H10.4961L10.6016 7.98438C10.7305 8.33203 10.793 8.39844 11.0078 8.39844C11.1328 8.39844 11.1836 8.375 11.2461 8.29688C11.293 8.23828 11.3281 8.15234 11.3281 8.10156C11.3281 8.05078 11.1445 7.51172 10.918 6.90625C10.4805 5.73828 10.418 5.625 10.1953 5.625C10.1328 5.625 10.0391 5.66406 9.98828 5.71094Z" fill="currentColor"/>
	<path d="M11.6914 5.71875L11.582 5.8125L11.5703 6.90234C11.5547 8.07812 11.5664 8.20703 11.6836 8.32422C11.7852 8.42578 12.043 8.42578 12.1484 8.32031C12.2187 8.25 12.2266 8.19141 12.2266 7.58984V6.94141L12.7344 7.62109C13.0156 7.99609 13.2734 8.32422 13.3086 8.34766C13.418 8.43359 13.6484 8.41016 13.7422 8.30859C13.8281 8.21875 13.8281 8.19531 13.8281 7.01562V5.81641L13.7305 5.72266C13.6094 5.59766 13.4375 5.59766 13.293 5.71875C13.1836 5.8125 13.1836 5.8125 13.1641 6.42187L13.1445 7.03516L12.6602 6.38672C12.3945 6.03125 12.1406 5.71484 12.0937 5.68359C11.9766 5.59766 11.8164 5.61328 11.6914 5.71875Z" fill="currentColor"/>
	<path d="M14.1992 5.72266L14.1016 5.81641V7.02344V8.23047L14.1914 8.3125C14.3047 8.42188 14.5273 8.42578 14.6523 8.32422C14.7383 8.25781 14.7461 8.21094 14.7656 7.84766C14.7773 7.62891 14.8047 7.44141 14.8242 7.4375C14.8477 7.43359 14.9648 7.54297 15.0859 7.6875C15.6445 8.33594 15.7148 8.39844 15.8828 8.39844C16.0859 8.39844 16.2109 8.27734 16.2109 8.07812C16.2109 7.95703 16.1562 7.875 15.7539 7.42188L15.3008 6.90625L15.6953 6.51172C16.0742 6.13281 16.0938 6.10156 16.0938 5.94922C16.0938 5.82031 16.0742 5.76953 15.9922 5.70703C15.7852 5.54297 15.6953 5.58203 15.207 6.0625L14.7656 6.5V6.19922C14.7656 5.86328 14.7227 5.73047 14.582 5.66797C14.4336 5.59766 14.3008 5.61719 14.1992 5.72266Z" fill="currentColor"/>
	<path d="M6.72266 9.16797C6.67578 9.20703 6.62891 9.30078 6.61719 9.37891C6.59375 9.50781 6.62109 9.55469 7.00781 10.0703L7.42188 10.625V11.168C7.42188 11.7109 7.42188 11.7148 7.52344 11.793C7.66016 11.9023 7.82422 11.8945 7.95703 11.7812C8.06641 11.6875 8.06641 11.6836 8.07813 11.1289L8.09375 10.5664L8.48047 10.0469C8.89844 9.48437 8.93359 9.39062 8.78516 9.20312C8.71484 9.11328 8.67969 9.09766 8.51953 9.10937C8.34375 9.12109 8.33594 9.125 8.05859 9.49219C7.90234 9.69531 7.75781 9.86328 7.73828 9.86328C7.71875 9.86328 7.60938 9.73828 7.49609 9.58984C7.17188 9.15234 7.11328 9.10156 6.94922 9.10156C6.87109 9.10156 6.76953 9.13281 6.72266 9.16797Z" fill="currentColor"/>
	<path d="M9.46875 9.19531C9.22266 9.30859 9 9.56641 8.92578 9.82031C8.85547 10.0469 8.84766 10.8789 8.90625 11.1016C8.97656 11.3477 9.17969 11.6055 9.41406 11.7344C9.61328 11.8477 9.65625 11.8555 10 11.8555C10.3437 11.8555 10.3867 11.8477 10.5859 11.7344C10.8203 11.6055 11.0234 11.3477 11.0937 11.1016C11.1523 10.8789 11.1445 10.0469 11.0742 9.82031C11 9.56641 10.7773 9.30859 10.5312 9.19531C10.3711 9.12109 10.2656 9.10156 10 9.10156C9.73437 9.10156 9.62891 9.12109 9.46875 9.19531ZM10.2969 9.83203C10.4414 9.92578 10.4766 10.0781 10.4609 10.5469L10.4492 10.9844L10.3203 11.0977C10.2187 11.1914 10.1602 11.2109 10 11.2109C9.83984 11.2109 9.78125 11.1914 9.67969 11.0977L9.55078 10.9844L9.53906 10.5469C9.52344 10.0742 9.55859 9.92578 9.70312 9.82812C9.86719 9.72266 10.1328 9.72266 10.2969 9.83203Z" fill="currentColor"/>
	<path d="M11.3945 9.14844C11.2773 9.24219 11.25 9.41406 11.25 10.1133C11.25 10.8867 11.3008 11.1758 11.4766 11.4062C11.6367 11.6172 11.7578 11.7109 11.9844 11.7969C12.4141 11.9609 12.8633 11.8672 13.1836 11.5508C13.4883 11.2422 13.5156 11.1328 13.5156 10.1172C13.5156 9.28516 13.5156 9.26953 13.4258 9.1875C13.3125 9.07812 13.0898 9.07422 12.9648 9.17578C12.8711 9.25 12.8711 9.26562 12.8516 10.0859C12.832 10.9961 12.8203 11.043 12.5938 11.1523C12.4219 11.2344 12.3008 11.2266 12.1445 11.1211C11.9453 10.9883 11.918 10.8594 11.918 10.0156C11.9141 9.32422 11.9102 9.26562 11.8359 9.1875C11.7422 9.08984 11.5039 9.07031 11.3945 9.14844Z" fill="currentColor"/>
</svg>
