<svg viewBox="0 0 20 20" fill="none" xmlns="http://www.w3.org/2000/svg">
	<path d="M9.52344 1.72266C8.05469 1.91406 6.84766 3.07422 6.5625 4.57031C6.5 4.88672 6.51172 5.57031 6.58203 5.90625C6.91406 7.52344 8.33594 8.67188 10 8.67188C11.6641 8.67188 13.0859 7.52344 13.418 5.90625C13.4883 5.57031 13.5 4.88672 13.4375 4.57031C13.2891 3.79297 12.957 3.18359 12.3711 2.62891C11.8477 2.13281 11.1641 1.8125 10.4258 1.71875C10.0586 1.67578 9.89844 1.67578 9.52344 1.72266ZM10.6719 3.00781C11.6094 3.29688 12.2695 4.19141 12.2695 5.17188C12.2656 5.81641 12.0508 6.34766 11.5977 6.79688C11.1719 7.22656 10.6016 7.46094 10 7.46094C9.39844 7.46094 8.82812 7.22656 8.40234 6.79688C7.95312 6.34766 7.73438 5.81641 7.73047 5.17578C7.73047 4.07813 8.53125 3.125 9.62109 2.92969C9.89844 2.88281 10.3789 2.91797 10.6719 3.00781Z" fill="currentColor"/>
	<path d="M3.375 4.98047C1.72266 5.33984 0.816406 7.14844 1.53906 8.65234C2.08594 9.80078 3.33203 10.3867 4.55469 10.0781C6.16797 9.66797 6.99219 7.88281 6.25391 6.38672C5.72656 5.32031 4.51953 4.73047 3.375 4.98047ZM4.47266 6.26563C5.10938 6.55469 5.46094 7.30859 5.25391 7.9375C4.83594 9.19531 3.1875 9.30078 2.62891 8.10547C2.53516 7.90625 2.51953 7.82031 2.51953 7.53906C2.51953 7.24219 2.53516 7.17578 2.64844 6.94531C2.77734 6.67969 3.02344 6.42188 3.26172 6.29688C3.62109 6.10938 4.10547 6.09766 4.47266 6.26563Z" fill="currentColor"/>
	<path d="M15.5273 4.98438C13.8711 5.35547 12.9961 7.19531 13.75 8.71875C14.1914 9.60938 15.0859 10.1562 16.0937 10.1562C17.543 10.1562 18.707 8.99609 18.7109 7.54688C18.7148 6.41406 17.9492 5.37891 16.8555 5.03906C16.4922 4.92578 15.8984 4.90234 15.5273 4.98438ZM16.4258 6.1875C16.8477 6.29688 17.1602 6.55469 17.3516 6.94531C17.4648 7.17578 17.4805 7.24219 17.4805 7.53906C17.4805 7.82031 17.4648 7.90625 17.3711 8.10547C17.1328 8.61719 16.6367 8.94531 16.0937 8.94531C15.293 8.94531 14.6484 8.26172 14.6953 7.46875C14.7461 6.59375 15.5977 5.96484 16.4258 6.1875Z" fill="currentColor"/>
	<path d="M7.98828 8.96875C7.68359 9.00781 7.37891 9.08594 7.14453 9.17969C6.60547 9.39844 6.05469 9.85938 5.76953 10.3438C5.65625 10.5273 5.63281 10.5469 5.54687 10.5234C5.37109 10.4727 2.65625 10.4609 2.38281 10.5078C1.37109 10.6836 0.46875 11.4727 0.125 12.4883L0.0195313 12.793L0.0078125 14.8203C-0.00390625 16.7852 2.32831e-09 16.8516 0.078125 17.0898C0.289063 17.7227 0.84375 18.1875 1.49219 18.2812C1.82031 18.332 18.1797 18.332 18.5078 18.2812C19.1563 18.1875 19.7109 17.7227 19.9219 17.0898C20 16.8516 20.0039 16.7852 19.9922 14.8203L19.9805 12.793L19.875 12.4883C19.5313 11.4727 18.6289 10.6836 17.6172 10.5078C17.3438 10.4609 14.6289 10.4727 14.4531 10.5234C14.3672 10.5469 14.3438 10.5273 14.2305 10.3438C13.9492 9.86719 13.3945 9.39844 12.875 9.1875C12.3477 8.97266 12.3555 8.97266 10.1563 8.96484C9.02734 8.95703 8.05469 8.96094 7.98828 8.96875ZM11.9922 10.1953C12.625 10.2969 13.168 10.7617 13.3906 11.3984C13.4453 11.5625 13.4531 11.9023 13.4648 14.3438L13.4805 17.1094H10H6.51953L6.53516 14.3438C6.54687 11.9023 6.55469 11.5625 6.60937 11.3984C6.82812 10.7773 7.375 10.2969 7.96875 10.1992C8.27344 10.1523 11.6797 10.1484 11.9922 10.1953ZM5.22656 11.7031L5.3125 11.7266V14.418V17.1133L3.44922 17.1016L1.58203 17.0898L1.45312 17C1.18359 16.8086 1.19141 16.8555 1.19141 14.9023C1.19141 13.1562 1.19141 13.1445 1.28516 12.8789C1.46094 12.3633 1.90234 11.9219 2.40234 11.7617C2.61328 11.6914 2.75781 11.6836 3.88672 11.6836C4.57422 11.6797 5.17578 11.6914 5.22656 11.7031ZM17.582 11.7578C18.0938 11.918 18.5352 12.3555 18.7148 12.8789C18.8086 13.1445 18.8086 13.1562 18.8086 14.9023C18.8086 16.8555 18.8164 16.8086 18.5469 17L18.418 17.0898L16.5547 17.1016L14.6875 17.1133V14.418C14.6875 11.8867 14.6914 11.7227 14.7578 11.707C14.793 11.6953 15.3906 11.6875 16.0781 11.6836C17.2344 11.6797 17.3555 11.6875 17.582 11.7578Z" fill="currentColor"/>
</svg>
